<svg width="116" height="40" viewBox="0 0 116 40" fill="none" xmlns="http://www.w3.org/2000/svg">
    <g clip-path="url(#clip0_116_191)">
        <g clip-path="url(#clip1_116_191)">
            <path d="M37.4009 17.8996C36.894 18.586 36.0459 19.7794 35.5297 20.4763C35.2677 20.8308 34.7945 21.4743 36.3634 21.4743C38.0233 21.4743 44.6237 21.4743 44.6237 21.4743C44.6237 21.4743 45.955 19.6632 47.0711 18.1484C48.5892 16.0878 47.2025 11.8002 41.775 11.8002C36.9171 11.8002 20.4004 11.8002 20.4004 11.8002L16.6943 16.8356C16.6943 16.8356 35.9073 16.8356 36.8934 16.8356C37.9131 16.8356 37.8993 17.2237 37.4009 17.8996ZM31.3326 22.7165C29.7637 22.7165 30.2369 22.0717 30.4989 21.7172C31.0151 21.0202 31.8771 19.8394 32.384 19.153C32.883 18.4771 32.8962 18.089 31.8751 18.089C30.8897 18.089 22.6373 18.089 22.6373 18.089L15.194 28.2047C15.194 28.2047 28.4878 28.2047 33.3457 28.2047C39.3408 28.2047 42.6786 24.127 43.7076 22.7172C43.7076 22.7165 32.9919 22.7165 31.3326 22.7165ZM43.1406 28.2047H53.789L57.8258 22.7158L47.1787 22.7172C47.1754 22.7165 43.1406 28.2047 43.1406 28.2047ZM70.6146 11.8002L66.5303 17.3478H61.778L65.8604 11.8002H55.2153L48.0935 21.4743H74.1385L81.2583 11.8002H70.6146ZM58.5412 28.2047H69.1856L73.2244 22.7172H62.58C62.576 22.7165 58.5412 28.2047 58.5412 28.2047ZM0 24.8814V26.047H14.8297L15.6864 24.8814H0ZM17.2804 22.7165H0V23.8808H16.4217L17.2804 22.7165ZM0 28.2047H13.241L14.0937 27.0457H0V28.2047ZM100.373 26.0464H116V24.8808H101.231L100.373 26.0464ZM98.7856 28.2047H116V27.0457H99.6377L98.7856 28.2047ZM102.822 22.7165L101.966 23.8821H116V22.7165H102.822ZM88.8798 21.4743L96.0009 11.8002H84.7268C84.7229 11.8002 77.6004 21.4743 77.6004 21.4743H88.8798ZM76.6876 22.7165C76.6876 22.7165 75.9094 23.7798 75.5312 24.292C74.1946 26.0979 75.3768 28.2047 79.7396 28.2047C84.7796 28.2047 96.8352 28.2047 96.8352 28.2047L100.874 22.7172L76.6876 22.7165Z" fill="white"/>
        </g>
    </g>
    <defs>
        <clipPath id="clip0_116_191">
            <rect width="116" height="40" fill="white"/>
        </clipPath>
        <clipPath id="clip1_116_191">
            <rect width="116" height="18" fill="white" transform="translate(0 11)"/>
        </clipPath>
    </defs>
</svg>
