<svg width="20" height="21" viewBox="0 0 20 21" fill="none" xmlns="http://www.w3.org/2000/svg">
    <g clip-path="url(#clip0_116_158)">
        <path opacity="0.5" fill-rule="evenodd" clip-rule="evenodd" d="M9.75 1.91997C5.19365 1.91997 1.5 5.61362 1.5 10.17C1.5 14.7263 5.19365 18.42 9.75 18.42C14.3063 18.42 18 14.7263 18 10.17C18 5.61362 14.3063 1.91997 9.75 1.91997ZM0 10.17C0 4.78519 4.36522 0.419968 9.75 0.419968C15.1348 0.419968 19.5 4.78519 19.5 10.17C19.5 15.5548 15.1348 19.92 9.75 19.92C4.36522 19.92 0 15.5548 0 10.17ZM14.7803 7.7003L8.75 13.7307L5.21967 10.2003L6.28033 9.13964L8.75 11.6093L13.7197 6.63964L14.7803 7.7003Z" fill="white"/>
    </g>
    <defs>
        <clipPath id="clip0_116_158">
            <rect width="20" height="20" fill="white" transform="translate(0 0.169968)"/>
        </clipPath>
    </defs>
</svg>