<svg width="50" height="44" viewBox="0 0 50 44" fill="none" xmlns="http://www.w3.org/2000/svg">
    <g clip-path="url(#clip0_116_291)">
        <g clip-path="url(#clip1_116_291)">
            <g clip-path="url(#clip2_116_291)">
                <path fill-rule="evenodd" clip-rule="evenodd" d="M39.5841 28.8597H33.7644L27.8027 34.8172C27.7631 34.8569 27.7119 34.8757 27.667 34.907C27.6201 34.9414 27.5846 34.9863 27.5313 35.0124C27.5199 35.0186 27.5073 35.0155 27.4959 35.0218C27.3612 35.0823 27.2182 35.1199 27.0732 35.1209L27.069 35.122H27.0679C26.8999 35.122 26.7392 35.0677 26.5878 34.9873C26.545 34.9644 26.5096 34.9372 26.4699 34.9091C26.424 34.8757 26.3718 34.8569 26.33 34.8151C26.2674 34.7525 26.2319 34.6753 26.1881 34.6022C26.1745 34.5782 26.1474 34.5688 26.1349 34.5427L19.8048 21.7875L16.5567 28.2836C16.5452 28.3055 16.5212 28.3138 16.5098 28.3347C16.4346 28.4621 16.3376 28.5664 16.2186 28.651C16.181 28.6771 16.1497 28.7031 16.11 28.724C15.9639 28.8033 15.8032 28.8597 15.6257 28.8597H9.37497C8.79988 28.8597 8.33334 28.3932 8.33334 27.816C8.33334 27.2388 8.79988 26.7723 9.37497 26.7723H14.9818L18.8769 18.982C18.8957 18.9434 18.9301 18.9194 18.9531 18.885C18.9907 18.8265 19.0303 18.7712 19.0804 18.7211C19.1326 18.6689 19.189 18.6282 19.2495 18.5896C19.2839 18.5666 19.3069 18.5343 19.3445 18.5155C19.3664 18.504 19.3914 18.5061 19.4144 18.4967C19.4781 18.4696 19.5438 18.456 19.6127 18.4424C19.6806 18.4299 19.7463 18.4163 19.8152 18.4163C19.8747 18.4163 19.931 18.4289 19.9905 18.4403C20.0657 18.4539 20.1377 18.4685 20.2076 18.4988C20.2295 18.5071 20.2536 18.5061 20.2744 18.5165C20.312 18.5353 20.335 18.5677 20.3694 18.5906C20.4289 18.6303 20.4853 18.67 20.5374 18.7221C20.5886 18.7733 20.6282 18.8296 20.6669 18.8891C20.6888 18.9236 20.7222 18.9476 20.741 18.9852L27.356 32.3154L32.5986 27.077C32.609 27.0656 32.6236 27.0624 32.6351 27.052C32.7238 26.9706 32.823 26.8996 32.9357 26.8527C33.0557 26.8036 33.183 26.7796 33.3104 26.7775C33.3187 26.7765 33.325 26.7723 33.3333 26.7723H39.5841C40.1592 26.7723 40.6257 27.2388 40.6257 27.816C40.6257 28.3932 40.1592 28.8597 39.5841 28.8597Z" fill="#E51B23"/>
                <path fill-rule="evenodd" clip-rule="evenodd" d="M39.5841 28.8597H33.7644L27.8027 34.8172C27.7631 34.8569 27.7119 34.8757 27.667 34.907C27.6201 34.9414 27.5846 34.9863 27.5313 35.0124C27.5199 35.0186 27.5073 35.0155 27.4959 35.0218C27.3612 35.0823 27.2182 35.1199 27.0732 35.1209L27.069 35.122H27.0679C26.8999 35.122 26.7392 35.0677 26.5878 34.9873C26.545 34.9644 26.5096 34.9372 26.4699 34.9091C26.424 34.8757 26.3718 34.8569 26.33 34.8151C26.2674 34.7525 26.2319 34.6753 26.1881 34.6022C26.1745 34.5782 26.1474 34.5688 26.1349 34.5427L19.8048 21.7875L16.5567 28.2836C16.5452 28.3055 16.5212 28.3138 16.5098 28.3347C16.4346 28.4621 16.3376 28.5664 16.2186 28.651C16.181 28.6771 16.1497 28.7031 16.11 28.724C15.9639 28.8033 15.8032 28.8597 15.6257 28.8597H9.37497C8.79988 28.8597 8.33334 28.3932 8.33334 27.816C8.33334 27.2388 8.79988 26.7723 9.37497 26.7723H14.9818L18.8769 18.982C18.8957 18.9434 18.9301 18.9194 18.9531 18.885C18.9907 18.8265 19.0303 18.7712 19.0804 18.7211C19.1326 18.6689 19.189 18.6282 19.2495 18.5896C19.2839 18.5666 19.3069 18.5343 19.3445 18.5155C19.3664 18.504 19.3914 18.5061 19.4144 18.4967C19.4781 18.4696 19.5438 18.456 19.6127 18.4424C19.6806 18.4299 19.7463 18.4163 19.8152 18.4163C19.8747 18.4163 19.931 18.4289 19.9905 18.4403C20.0657 18.4539 20.1377 18.4685 20.2076 18.4988C20.2295 18.5071 20.2536 18.5061 20.2744 18.5165C20.312 18.5353 20.335 18.5677 20.3694 18.5906C20.4289 18.6303 20.4853 18.67 20.5374 18.7221C20.5886 18.7733 20.6282 18.8296 20.6669 18.8891C20.6888 18.9236 20.7222 18.9476 20.741 18.9852L27.356 32.3154L32.5986 27.077C32.609 27.0656 32.6236 27.0624 32.6351 27.052C32.7238 26.9706 32.823 26.8996 32.9357 26.8527C33.0557 26.8036 33.183 26.7796 33.3104 26.7775C33.3187 26.7765 33.325 26.7723 33.3333 26.7723H39.5841C40.1592 26.7723 40.6257 27.2388 40.6257 27.816C40.6257 28.3932 40.1592 28.8597 39.5841 28.8597Z" fill="url(#paint0_linear_116_291)"/>
                <path fill-rule="evenodd" clip-rule="evenodd" d="M46.875 43.4137H3.125C1.40208 43.4137 0 42.0126 0 40.2908V4.87305C0 3.15013 1.40208 1.74805 3.125 1.74805H46.875C48.5979 1.74805 50 3.15013 50 4.87305V40.2908C50 42.0126 48.5979 43.4137 46.875 43.4137ZM47.9167 4.87305C47.9167 4.29805 47.449 3.83138 46.875 3.83138H3.125C2.55104 3.83138 2.08333 4.29805 2.08333 4.87305V10.0814H47.9167V4.87305ZM47.9167 12.1647H2.08333V40.2908C2.08333 40.8647 2.55104 41.3314 3.125 41.3314H46.875C47.449 41.3314 47.9167 40.8647 47.9167 40.2908V12.1647ZM5.22917 5.9595H5.23958C5.81563 5.9595 6.28125 6.42513 6.28125 7.00117C6.28125 7.57617 5.81563 8.04284 5.23958 8.04284C4.66354 8.04284 4.19271 7.57617 4.19271 7.00117C4.19271 6.42513 4.65417 5.9595 5.22917 5.9595ZM8.35417 5.9595H8.36458C8.93958 5.9595 9.40625 6.42513 9.40625 7.00117C9.40625 7.57617 8.93958 8.04284 8.36458 8.04284C7.78958 8.04284 7.31771 7.57617 7.31771 7.00117C7.31771 6.42513 7.77917 5.9595 8.35417 5.9595ZM11.4792 5.9595H11.4896C12.0656 5.9595 12.5312 6.42513 12.5312 7.00117C12.5312 7.57617 12.0656 8.04284 11.4896 8.04284C10.9135 8.04284 10.4427 7.57617 10.4427 7.00117C10.4427 6.42513 10.9042 5.9595 11.4792 5.9595Z" fill="#E51B23"/>
                <path fill-rule="evenodd" clip-rule="evenodd" d="M46.875 43.4137H3.125C1.40208 43.4137 0 42.0126 0 40.2908V4.87305C0 3.15013 1.40208 1.74805 3.125 1.74805H46.875C48.5979 1.74805 50 3.15013 50 4.87305V40.2908C50 42.0126 48.5979 43.4137 46.875 43.4137ZM47.9167 4.87305C47.9167 4.29805 47.449 3.83138 46.875 3.83138H3.125C2.55104 3.83138 2.08333 4.29805 2.08333 4.87305V10.0814H47.9167V4.87305ZM47.9167 12.1647H2.08333V40.2908C2.08333 40.8647 2.55104 41.3314 3.125 41.3314H46.875C47.449 41.3314 47.9167 40.8647 47.9167 40.2908V12.1647ZM5.22917 5.9595H5.23958C5.81563 5.9595 6.28125 6.42513 6.28125 7.00117C6.28125 7.57617 5.81563 8.04284 5.23958 8.04284C4.66354 8.04284 4.19271 7.57617 4.19271 7.00117C4.19271 6.42513 4.65417 5.9595 5.22917 5.9595ZM8.35417 5.9595H8.36458C8.93958 5.9595 9.40625 6.42513 9.40625 7.00117C9.40625 7.57617 8.93958 8.04284 8.36458 8.04284C7.78958 8.04284 7.31771 7.57617 7.31771 7.00117C7.31771 6.42513 7.77917 5.9595 8.35417 5.9595ZM11.4792 5.9595H11.4896C12.0656 5.9595 12.5312 6.42513 12.5312 7.00117C12.5312 7.57617 12.0656 8.04284 11.4896 8.04284C10.9135 8.04284 10.4427 7.57617 10.4427 7.00117C10.4427 6.42513 10.9042 5.9595 11.4792 5.9595Z" fill="url(#paint1_linear_116_291)"/>
            </g>
        </g>
    </g>
    <defs>
        <linearGradient id="paint0_linear_116_291" x1="25" y1="1.748" x2="25" y2="43.4137" gradientUnits="userSpaceOnUse">
            <stop stop-color="white" stop-opacity="0.1"/>
            <stop offset="1" stop-opacity="0"/>
        </linearGradient>
        <linearGradient id="paint1_linear_116_291" x1="25" y1="1.74805" x2="25" y2="43.4137" gradientUnits="userSpaceOnUse">
            <stop stop-color="white" stop-opacity="0.1"/>
            <stop offset="1" stop-opacity="0"/>
        </linearGradient>
        <clipPath id="clip0_116_291">
            <rect width="50" height="43" fill="white" transform="translate(0 0.75)"/>
        </clipPath>
        <clipPath id="clip1_116_291">
            <rect width="50" height="43" fill="white" transform="translate(0 0.75)"/>
        </clipPath>
        <clipPath id="clip2_116_291">
            <rect width="50" height="43" fill="white" transform="translate(0 0.75)"/>
        </clipPath>
    </defs>
</svg>
