<svg width="50" height="51" viewBox="0 0 50 51" fill="none" xmlns="http://www.w3.org/2000/svg">
    <g clip-path="url(#clip0_116_311)">
        <g clip-path="url(#clip1_116_311)">
            <g clip-path="url(#clip2_116_311)">
                <path fill-rule="evenodd" clip-rule="evenodd" d="M46.875 50.249H3.125C1.40208 50.249 0 48.8479 0 47.125V9.625C0 7.90104 1.40208 6.5 3.125 6.5H13.5417V1.29062C13.5417 0.715625 14.0073 0.25 14.5833 0.25C15.1594 0.25 15.625 0.715625 15.625 1.29062V6.5H34.375V1.29062C34.375 0.715625 34.8406 0.25 35.4167 0.25C35.9927 0.25 36.4583 0.715625 36.4583 1.29062V6.5H46.875C48.5979 6.5 50 7.90104 50 9.625V47.125C50 48.8479 48.5979 50.249 46.875 50.249ZM47.9167 9.625C47.9167 9.05104 47.45 8.58229 46.875 8.58229H36.4583V11.7083C36.4583 12.2833 35.9927 12.749 35.4167 12.749C34.8406 12.749 34.375 12.2833 34.375 11.7083V8.58229H15.625V11.7083C15.625 12.2833 15.1594 12.749 14.5833 12.749C14.0073 12.749 13.5417 12.2833 13.5417 11.7083V8.58229H3.125C2.55 8.58229 2.08333 9.05104 2.08333 9.625V47.125C2.08333 47.699 2.55 48.1656 3.125 48.1656H46.875C47.45 48.1656 47.9167 47.699 47.9167 47.125V9.625ZM23.0958 37.3729C22.9021 37.6052 22.6187 37.7427 22.3177 37.749C22.3094 37.749 22.301 37.749 22.2927 37.749C22 37.749 21.7208 37.626 21.5229 37.4083L14.8552 30.0802C14.4677 29.6552 14.499 28.9969 14.924 28.6094C15.349 28.2229 16.0083 28.2531 16.3948 28.6781L22.2562 35.1187L33.5719 21.4594C33.9396 21.0167 34.5948 20.9531 35.0396 21.3219C35.4823 21.6896 35.5437 22.3458 35.1771 22.7885L23.0958 37.3729Z" fill="#E51B23"/>
                <path fill-rule="evenodd" clip-rule="evenodd" d="M46.875 50.249H3.125C1.40208 50.249 0 48.8479 0 47.125V9.625C0 7.90104 1.40208 6.5 3.125 6.5H13.5417V1.29062C13.5417 0.715625 14.0073 0.25 14.5833 0.25C15.1594 0.25 15.625 0.715625 15.625 1.29062V6.5H34.375V1.29062C34.375 0.715625 34.8406 0.25 35.4167 0.25C35.9927 0.25 36.4583 0.715625 36.4583 1.29062V6.5H46.875C48.5979 6.5 50 7.90104 50 9.625V47.125C50 48.8479 48.5979 50.249 46.875 50.249ZM47.9167 9.625C47.9167 9.05104 47.45 8.58229 46.875 8.58229H36.4583V11.7083C36.4583 12.2833 35.9927 12.749 35.4167 12.749C34.8406 12.749 34.375 12.2833 34.375 11.7083V8.58229H15.625V11.7083C15.625 12.2833 15.1594 12.749 14.5833 12.749C14.0073 12.749 13.5417 12.2833 13.5417 11.7083V8.58229H3.125C2.55 8.58229 2.08333 9.05104 2.08333 9.625V47.125C2.08333 47.699 2.55 48.1656 3.125 48.1656H46.875C47.45 48.1656 47.9167 47.699 47.9167 47.125V9.625ZM23.0958 37.3729C22.9021 37.6052 22.6187 37.7427 22.3177 37.749C22.3094 37.749 22.301 37.749 22.2927 37.749C22 37.749 21.7208 37.626 21.5229 37.4083L14.8552 30.0802C14.4677 29.6552 14.499 28.9969 14.924 28.6094C15.349 28.2229 16.0083 28.2531 16.3948 28.6781L22.2562 35.1187L33.5719 21.4594C33.9396 21.0167 34.5948 20.9531 35.0396 21.3219C35.4823 21.6896 35.5437 22.3458 35.1771 22.7885L23.0958 37.3729Z" fill="url(#paint0_linear_116_311)"/>
            </g>
        </g>
    </g>
    <defs>
        <linearGradient id="paint0_linear_116_311" x1="25" y1="0.25" x2="25" y2="50.249" gradientUnits="userSpaceOnUse">
            <stop stop-color="white" stop-opacity="0.1"/>
            <stop offset="1" stop-opacity="0"/>
        </linearGradient>
        <clipPath id="clip0_116_311">
            <rect width="50" height="50" fill="white" transform="translate(0 0.25)"/>
        </clipPath>
        <clipPath id="clip1_116_311">
            <rect width="50" height="50" fill="white" transform="translate(0 0.25)"/>
        </clipPath>
        <clipPath id="clip2_116_311">
            <rect width="50" height="50" fill="white" transform="translate(0 0.25)"/>
        </clipPath>
    </defs>
</svg>
