<svg width="50" height="51" viewBox="0 0 50 51" fill="none" xmlns="http://www.w3.org/2000/svg">
    <g clip-path="url(#clip0_116_299)">
        <g clip-path="url(#clip1_116_299)">
            <g clip-path="url(#clip2_116_299)">
                <path fill-rule="evenodd" clip-rule="evenodd" d="M47.3615 17.9153H45.8333C45.2573 17.9153 44.7917 17.4486 44.7917 16.8736C44.7917 16.2976 45.2573 15.8319 45.8333 15.8319H47.3615C47.6625 15.8319 47.9167 15.5663 47.9167 15.2528V3.9111C47.9167 3.59652 47.6625 3.33089 47.3615 3.33089H2.63854C2.3375 3.33089 2.08333 3.59652 2.08333 3.9111V15.2528C2.08333 15.5663 2.3375 15.8319 2.63854 15.8319H4.16667C4.74271 15.8319 5.20833 16.2976 5.20833 16.8736C5.20833 17.4486 4.74271 17.9153 4.16667 17.9153H2.63854C1.18437 17.9153 0 16.7205 0 15.2528V3.9111C0 2.44235 1.18437 1.24756 2.63854 1.24756H47.3615C48.8156 1.24756 50 2.44235 50 3.9111V15.2528C50 16.7205 48.8156 17.9153 47.3615 17.9153ZM9.375 8.54027H40.625C41.201 8.54027 41.6667 9.00693 41.6667 9.58193V49.1653C41.6667 49.7403 41.201 50.2069 40.625 50.2069H9.375C8.79896 50.2069 8.33333 49.7403 8.33333 49.1653V9.58193C8.33333 9.00693 8.79896 8.54027 9.375 8.54027ZM10.4167 48.1226H39.5833V10.6236H10.4167V48.1226ZM24.999 27.2903C27.2969 27.2903 29.1667 29.158 29.1667 31.4559C29.1667 33.3903 27.8333 35.008 26.0406 35.4736L26.0417 37.7069C26.0417 38.2819 25.576 38.7486 25 38.7486C24.425 38.7486 23.9583 38.2819 23.9583 37.7069L23.9573 35.6226H21.875C21.299 35.6226 20.8333 35.1559 20.8333 34.5809C20.8333 34.0049 21.299 33.5382 21.875 33.5382H24.999C26.1479 33.5382 27.0833 32.6049 27.0833 31.4559C27.0833 30.308 26.1479 29.3726 24.999 29.3726C22.7021 29.3726 20.8333 27.5049 20.8333 25.2069C20.8333 23.2705 22.1667 21.6538 23.9583 21.1882V18.9569C23.9583 18.3819 24.424 17.9153 25 17.9153C25.576 17.9153 26.0417 18.3819 26.0417 18.9569V21.0413H28.125C28.701 21.0413 29.1667 21.5069 29.1667 22.083C29.1667 22.658 28.701 23.1246 28.125 23.1246H24.999C23.85 23.1246 22.9167 24.058 22.9167 25.2069C22.9167 26.3549 23.85 27.2903 24.999 27.2903Z" fill="#E51B23"/>
                <path fill-rule="evenodd" clip-rule="evenodd" d="M47.3615 17.9153H45.8333C45.2573 17.9153 44.7917 17.4486 44.7917 16.8736C44.7917 16.2976 45.2573 15.8319 45.8333 15.8319H47.3615C47.6625 15.8319 47.9167 15.5663 47.9167 15.2528V3.9111C47.9167 3.59652 47.6625 3.33089 47.3615 3.33089H2.63854C2.3375 3.33089 2.08333 3.59652 2.08333 3.9111V15.2528C2.08333 15.5663 2.3375 15.8319 2.63854 15.8319H4.16667C4.74271 15.8319 5.20833 16.2976 5.20833 16.8736C5.20833 17.4486 4.74271 17.9153 4.16667 17.9153H2.63854C1.18437 17.9153 0 16.7205 0 15.2528V3.9111C0 2.44235 1.18437 1.24756 2.63854 1.24756H47.3615C48.8156 1.24756 50 2.44235 50 3.9111V15.2528C50 16.7205 48.8156 17.9153 47.3615 17.9153ZM9.375 8.54027H40.625C41.201 8.54027 41.6667 9.00693 41.6667 9.58193V49.1653C41.6667 49.7403 41.201 50.2069 40.625 50.2069H9.375C8.79896 50.2069 8.33333 49.7403 8.33333 49.1653V9.58193C8.33333 9.00693 8.79896 8.54027 9.375 8.54027ZM10.4167 48.1226H39.5833V10.6236H10.4167V48.1226ZM24.999 27.2903C27.2969 27.2903 29.1667 29.158 29.1667 31.4559C29.1667 33.3903 27.8333 35.008 26.0406 35.4736L26.0417 37.7069C26.0417 38.2819 25.576 38.7486 25 38.7486C24.425 38.7486 23.9583 38.2819 23.9583 37.7069L23.9573 35.6226H21.875C21.299 35.6226 20.8333 35.1559 20.8333 34.5809C20.8333 34.0049 21.299 33.5382 21.875 33.5382H24.999C26.1479 33.5382 27.0833 32.6049 27.0833 31.4559C27.0833 30.308 26.1479 29.3726 24.999 29.3726C22.7021 29.3726 20.8333 27.5049 20.8333 25.2069C20.8333 23.2705 22.1667 21.6538 23.9583 21.1882V18.9569C23.9583 18.3819 24.424 17.9153 25 17.9153C25.576 17.9153 26.0417 18.3819 26.0417 18.9569V21.0413H28.125C28.701 21.0413 29.1667 21.5069 29.1667 22.083C29.1667 22.658 28.701 23.1246 28.125 23.1246H24.999C23.85 23.1246 22.9167 24.058 22.9167 25.2069C22.9167 26.3549 23.85 27.2903 24.999 27.2903Z" fill="url(#paint0_linear_116_299)"/>
            </g>
        </g>
    </g>
    <defs>
        <linearGradient id="paint0_linear_116_299" x1="25" y1="1.24756" x2="25" y2="50.2069" gradientUnits="userSpaceOnUse">
            <stop stop-color="white" stop-opacity="0.1"/>
            <stop offset="1" stop-opacity="0"/>
        </linearGradient>
        <clipPath id="clip0_116_299">
            <rect width="50" height="50" fill="white" transform="translate(0 0.25)"/>
        </clipPath>
        <clipPath id="clip1_116_299">
            <rect width="50" height="50" fill="white" transform="translate(0 0.25)"/>
        </clipPath>
        <clipPath id="clip2_116_299">
            <rect width="50" height="50" fill="white" transform="translate(0 0.25)"/>
        </clipPath>
    </defs>
</svg>
