<svg width="2508" height="117" viewBox="0 0 2508 117" fill="none" xmlns="http://www.w3.org/2000/svg">
<mask id="path-1-outside-1_200_10" maskUnits="userSpaceOnUse" x="3" y="19" width="590" height="74" fill="black">
<rect fill="white" x="3" y="19" width="590" height="74"/>
<path d="M61.152 88H44.352L24.96 62.368L19.968 68.32V88H6.336V23.968H19.968V52.576L42.624 23.968H59.424L33.984 54.016L61.152 88ZM104.723 89.152C85.4273 89.152 71.3153 75.328 71.3153 56.032C71.3153 36.736 85.4273 22.912 104.723 22.912C124.115 22.912 138.227 36.736 138.227 56.032C138.227 75.328 124.115 89.152 104.723 89.152ZM104.723 77.056C116.531 77.056 124.211 67.936 124.211 56.032C124.211 44.032 116.531 35.008 104.723 35.008C92.9153 35.008 85.3313 44.032 85.3313 56.032C85.3313 67.936 92.9153 77.056 104.723 77.056ZM216.914 88H203.186V61.12H172.946V88H159.314V23.968H172.946V49.12H203.186V23.968H216.914V88ZM269.564 88H255.836V35.968H237.116V23.968H288.188V35.968H269.564V88ZM361.972 88H346.42L342.484 77.152H315.028L310.996 88H295.444L320.212 23.968H337.3L361.972 88ZM338.74 65.152L328.756 37.6L318.772 65.152H338.74ZM434.221 88H417.421L398.029 62.368L393.037 68.32V88H379.405V23.968H393.037V52.576L415.693 23.968H432.493L407.053 54.016L434.221 88ZM480.468 88H466.74V35.968H448.02V23.968H499.092V35.968H480.468V88ZM519.351 23.968H532.983V46.72H549.303C563.127 46.72 570.807 56.224 570.807 67.36C570.807 78.592 563.223 88 549.303 88H519.351V23.968ZM547.479 58.72H532.983V76H547.479C552.855 76 556.887 72.736 556.887 67.36C556.887 62.08 552.855 58.72 547.479 58.72ZM589.911 88H576.183V23.968H589.911V88Z"/>
</mask>
<path d="M61.152 88V91H67.3911L63.4953 86.1267L61.152 88ZM44.352 88L41.9595 89.81L42.8598 91H44.352V88ZM24.96 62.368L27.3525 60.558L25.0809 57.5554L22.6614 60.4402L24.96 62.368ZM19.968 68.32L17.6694 66.3922L16.968 67.2285V68.32H19.968ZM19.968 88V91H22.968V88H19.968ZM6.336 88H3.336V91H6.336V88ZM6.336 23.968V20.968H3.336V23.968H6.336ZM19.968 23.968H22.968V20.968H19.968V23.968ZM19.968 52.576H16.968V61.1963L22.3198 54.4385L19.968 52.576ZM42.624 23.968V20.968H41.173L40.2722 22.1055L42.624 23.968ZM59.424 23.968L61.7136 25.9065L65.8947 20.968H59.424V23.968ZM33.984 54.016L31.6944 52.0775L30.0995 53.9613L31.6407 55.8893L33.984 54.016ZM61.152 85H44.352V91H61.152V85ZM46.7445 86.19L27.3525 60.558L22.5675 64.178L41.9595 89.81L46.7445 86.19ZM22.6614 60.4402L17.6694 66.3922L22.2666 70.2478L27.2586 64.2958L22.6614 60.4402ZM16.968 68.32V88H22.968V68.32H16.968ZM19.968 85H6.336V91H19.968V85ZM9.336 88V23.968H3.336V88H9.336ZM6.336 26.968H19.968V20.968H6.336V26.968ZM16.968 23.968V52.576H22.968V23.968H16.968ZM22.3198 54.4385L44.9758 25.8305L40.2722 22.1055L17.6162 50.7135L22.3198 54.4385ZM42.624 26.968H59.424V20.968H42.624V26.968ZM57.1344 22.0295L31.6944 52.0775L36.2736 55.9545L61.7136 25.9065L57.1344 22.0295ZM31.6407 55.8893L58.8088 89.8733L63.4953 86.1267L36.3273 52.1427L31.6407 55.8893ZM104.723 86.152C87.0495 86.152 74.3153 73.6368 74.3153 56.032H68.3153C68.3153 77.0192 83.805 92.152 104.723 92.152V86.152ZM74.3153 56.032C74.3153 38.4272 87.0495 25.912 104.723 25.912V19.912C83.805 19.912 68.3153 35.0448 68.3153 56.032H74.3153ZM104.723 25.912C122.499 25.912 135.227 38.4329 135.227 56.032H141.227C141.227 35.0391 125.732 19.912 104.723 19.912V25.912ZM135.227 56.032C135.227 73.6311 122.499 86.152 104.723 86.152V92.152C125.732 92.152 141.227 77.0249 141.227 56.032H135.227ZM104.723 80.056C111.449 80.056 117.14 77.4363 121.124 73.0165C125.081 68.6255 127.211 62.6231 127.211 56.032H121.211C121.211 61.3449 119.501 65.8545 116.667 68.9995C113.858 72.1157 109.806 74.056 104.723 74.056V80.056ZM127.211 56.032C127.211 49.3975 125.084 43.3913 121.121 39.008C117.132 34.5964 111.439 32.008 104.723 32.008V38.008C109.816 38.008 113.867 39.9316 116.67 43.032C119.499 46.1607 121.211 50.6665 121.211 56.032H127.211ZM104.723 32.008C98.0057 32.008 92.3329 34.5982 88.3669 39.0159C84.4287 43.4025 82.3313 49.4074 82.3313 56.032H88.3313C88.3313 50.6566 90.0258 46.1495 92.8316 43.0241C95.6096 39.9298 99.6329 38.008 104.723 38.008V32.008ZM82.3313 56.032C82.3313 62.6131 84.4312 68.6143 88.3637 73.0086C92.3244 77.4345 97.9957 80.056 104.723 80.056V74.056C99.6428 74.056 95.6181 72.1175 92.8348 69.0074C90.0233 65.8657 88.3313 61.3549 88.3313 56.032H82.3313ZM216.914 88V91H219.914V88H216.914ZM203.186 88H200.186V91H203.186V88ZM203.186 61.12H206.186V58.12H203.186V61.12ZM172.946 61.12V58.12H169.946V61.12H172.946ZM172.946 88V91H175.946V88H172.946ZM159.314 88H156.314V91H159.314V88ZM159.314 23.968V20.968H156.314V23.968H159.314ZM172.946 23.968H175.946V20.968H172.946V23.968ZM172.946 49.12H169.946V52.12H172.946V49.12ZM203.186 49.12V52.12H206.186V49.12H203.186ZM203.186 23.968V20.968H200.186V23.968H203.186ZM216.914 23.968H219.914V20.968H216.914V23.968ZM216.914 85H203.186V91H216.914V85ZM206.186 88V61.12H200.186V88H206.186ZM203.186 58.12H172.946V64.12H203.186V58.12ZM169.946 61.12V88H175.946V61.12H169.946ZM172.946 85H159.314V91H172.946V85ZM162.314 88V23.968H156.314V88H162.314ZM159.314 26.968H172.946V20.968H159.314V26.968ZM169.946 23.968V49.12H175.946V23.968H169.946ZM172.946 52.12H203.186V46.12H172.946V52.12ZM206.186 49.12V23.968H200.186V49.12H206.186ZM203.186 26.968H216.914V20.968H203.186V26.968ZM213.914 23.968V88H219.914V23.968H213.914ZM269.564 88V91H272.564V88H269.564ZM255.836 88H252.836V91H255.836V88ZM255.836 35.968H258.836V32.968H255.836V35.968ZM237.116 35.968H234.116V38.968H237.116V35.968ZM237.116 23.968V20.968H234.116V23.968H237.116ZM288.188 23.968H291.188V20.968H288.188V23.968ZM288.188 35.968V38.968H291.188V35.968H288.188ZM269.564 35.968V32.968H266.564V35.968H269.564ZM269.564 85H255.836V91H269.564V85ZM258.836 88V35.968H252.836V88H258.836ZM255.836 32.968H237.116V38.968H255.836V32.968ZM240.116 35.968V23.968H234.116V35.968H240.116ZM237.116 26.968H288.188V20.968H237.116V26.968ZM285.188 23.968V35.968H291.188V23.968H285.188ZM288.188 32.968H269.564V38.968H288.188V32.968ZM266.564 35.968V88H272.564V35.968H266.564ZM361.972 88V91H366.343L364.771 86.9214L361.972 88ZM346.42 88L343.6 89.0232L344.317 91H346.42V88ZM342.484 77.152L345.304 76.1288L344.587 74.152H342.484V77.152ZM315.028 77.152V74.152H312.942L312.216 76.1068L315.028 77.152ZM310.996 88V91H313.081L313.808 89.0452L310.996 88ZM295.444 88L292.646 86.9177L291.067 91H295.444V88ZM320.212 23.968V20.968H318.156L317.414 22.8857L320.212 23.968ZM337.3 23.968L340.099 22.8894L339.359 20.968H337.3V23.968ZM338.74 65.152V68.152H343.018L341.56 64.1299L338.74 65.152ZM328.756 37.6L331.576 36.5779L328.756 28.7944L325.935 36.5779L328.756 37.6ZM318.772 65.152L315.951 64.1299L314.494 68.152H318.772V65.152ZM361.972 85H346.42V91H361.972V85ZM349.24 86.9768L345.304 76.1288L339.664 78.1752L343.6 89.0232L349.24 86.9768ZM342.484 74.152H315.028V80.152H342.484V74.152ZM312.216 76.1068L308.184 86.9548L313.808 89.0452L317.84 78.1972L312.216 76.1068ZM310.996 85H295.444V91H310.996V85ZM298.242 89.0823L323.01 25.0503L317.414 22.8857L292.646 86.9177L298.242 89.0823ZM320.212 26.968H337.3V20.968H320.212V26.968ZM334.5 25.0466L359.172 89.0786L364.771 86.9214L340.099 22.8894L334.5 25.0466ZM341.56 64.1299L331.576 36.5779L325.935 38.6221L335.919 66.1741L341.56 64.1299ZM325.935 36.5779L315.951 64.1299L321.592 66.1741L331.576 38.6221L325.935 36.5779ZM318.772 68.152H338.74V62.152H318.772V68.152ZM434.221 88V91H440.46L436.564 86.1267L434.221 88ZM417.421 88L415.028 89.81L415.929 91H417.421V88ZM398.029 62.368L400.421 60.558L398.15 57.5554L395.73 60.4402L398.029 62.368ZM393.037 68.32L390.738 66.3922L390.037 67.2285V68.32H393.037ZM393.037 88V91H396.037V88H393.037ZM379.405 88H376.405V91H379.405V88ZM379.405 23.968V20.968H376.405V23.968H379.405ZM393.037 23.968H396.037V20.968H393.037V23.968ZM393.037 52.576H390.037V61.1963L395.389 54.4385L393.037 52.576ZM415.693 23.968V20.968H414.242L413.341 22.1055L415.693 23.968ZM432.493 23.968L434.782 25.9065L438.964 20.968H432.493V23.968ZM407.053 54.016L404.763 52.0775L403.168 53.9613L404.71 55.8893L407.053 54.016ZM434.221 85H417.421V91H434.221V85ZM419.813 86.19L400.421 60.558L395.636 64.178L415.028 89.81L419.813 86.19ZM395.73 60.4402L390.738 66.3922L395.335 70.2478L400.327 64.2958L395.73 60.4402ZM390.037 68.32V88H396.037V68.32H390.037ZM393.037 85H379.405V91H393.037V85ZM382.405 88V23.968H376.405V88H382.405ZM379.405 26.968H393.037V20.968H379.405V26.968ZM390.037 23.968V52.576H396.037V23.968H390.037ZM395.389 54.4385L418.045 25.8305L413.341 22.1055L390.685 50.7135L395.389 54.4385ZM415.693 26.968H432.493V20.968H415.693V26.968ZM430.203 22.0295L404.763 52.0775L409.342 55.9545L434.782 25.9065L430.203 22.0295ZM404.71 55.8893L431.878 89.8733L436.564 86.1267L409.396 52.1427L404.71 55.8893ZM480.468 88V91H483.468V88H480.468ZM466.74 88H463.74V91H466.74V88ZM466.74 35.968H469.74V32.968H466.74V35.968ZM448.02 35.968H445.02V38.968H448.02V35.968ZM448.02 23.968V20.968H445.02V23.968H448.02ZM499.092 23.968H502.092V20.968H499.092V23.968ZM499.092 35.968V38.968H502.092V35.968H499.092ZM480.468 35.968V32.968H477.468V35.968H480.468ZM480.468 85H466.74V91H480.468V85ZM469.74 88V35.968H463.74V88H469.74ZM466.74 32.968H448.02V38.968H466.74V32.968ZM451.02 35.968V23.968H445.02V35.968H451.02ZM448.02 26.968H499.092V20.968H448.02V26.968ZM496.092 23.968V35.968H502.092V23.968H496.092ZM499.092 32.968H480.468V38.968H499.092V32.968ZM477.468 35.968V88H483.468V35.968H477.468ZM519.351 23.968V20.968H516.351V23.968H519.351ZM532.983 23.968H535.983V20.968H532.983V23.968ZM532.983 46.72H529.983V49.72H532.983V46.72ZM519.351 88H516.351V91H519.351V88ZM532.983 58.72V55.72H529.983V58.72H532.983ZM532.983 76H529.983V79H532.983V76ZM589.911 88V91H592.911V88H589.911ZM576.183 88H573.183V91H576.183V88ZM576.183 23.968V20.968H573.183V23.968H576.183ZM589.911 23.968H592.911V20.968H589.911V23.968ZM519.351 26.968H532.983V20.968H519.351V26.968ZM529.983 23.968V46.72H535.983V23.968H529.983ZM532.983 49.72H549.303V43.72H532.983V49.72ZM549.303 49.72C555.494 49.72 560.061 51.8288 563.084 54.9507C566.13 58.0968 567.807 62.4796 567.807 67.36H573.807C573.807 61.1044 571.644 55.1672 567.394 50.7773C563.121 46.3632 556.936 43.72 549.303 43.72V49.72ZM567.807 67.36C567.807 72.3033 566.144 76.6808 563.12 79.8054C560.118 82.9062 555.555 85 549.303 85V91C556.971 91 563.16 88.3898 567.43 83.9786C571.678 79.5912 573.807 73.6487 573.807 67.36H567.807ZM549.303 85H519.351V91H549.303V85ZM522.351 88V23.968H516.351V88H522.351ZM547.479 55.72H532.983V61.72H547.479V55.72ZM529.983 58.72V76H535.983V58.72H529.983ZM532.983 79H547.479V73H532.983V79ZM547.479 79C550.761 79 553.864 78.0005 556.188 75.9418C558.552 73.8481 559.887 70.8506 559.887 67.36H553.887C553.887 69.2454 553.206 70.5679 552.21 71.4502C551.174 72.3675 549.573 73 547.479 73V79ZM559.887 67.36C559.887 63.9056 558.544 60.9176 556.197 58.8222C553.883 56.7563 550.783 55.72 547.479 55.72V61.72C549.551 61.72 551.155 62.3637 552.201 63.2978C553.214 64.2024 553.887 65.5344 553.887 67.36H559.887ZM589.911 85H576.183V91H589.911V85ZM579.183 88V23.968H573.183V88H579.183ZM576.183 26.968H589.911V20.968H576.183V26.968ZM586.911 23.968V88H592.911V23.968H586.911Z" fill="#9E9E9E" mask="url(#path-1-outside-1_200_10)"/>
<mask id="path-3-outside-2_200_10" maskUnits="userSpaceOnUse" x="640" y="19" width="590" height="74" fill="black">
<rect fill="white" x="640" y="19" width="590" height="74"/>
<path d="M698.152 88H681.352L661.96 62.368L656.968 68.32V88H643.336V23.968H656.968V52.576L679.624 23.968H696.424L670.984 54.016L698.152 88ZM741.723 89.152C722.427 89.152 708.315 75.328 708.315 56.032C708.315 36.736 722.427 22.912 741.723 22.912C761.115 22.912 775.227 36.736 775.227 56.032C775.227 75.328 761.115 89.152 741.723 89.152ZM741.723 77.056C753.531 77.056 761.211 67.936 761.211 56.032C761.211 44.032 753.531 35.008 741.723 35.008C729.915 35.008 722.331 44.032 722.331 56.032C722.331 67.936 729.915 77.056 741.723 77.056ZM853.914 88H840.186V61.12H809.946V88H796.314V23.968H809.946V49.12H840.186V23.968H853.914V88ZM906.564 88H892.836V35.968H874.116V23.968H925.188V35.968H906.564V88ZM998.972 88H983.42L979.484 77.152H952.028L947.996 88H932.444L957.212 23.968H974.3L998.972 88ZM975.74 65.152L965.756 37.6L955.772 65.152H975.74ZM1071.22 88H1054.42L1035.03 62.368L1030.04 68.32V88H1016.4V23.968H1030.04V52.576L1052.69 23.968H1069.49L1044.05 54.016L1071.22 88ZM1117.47 88H1103.74V35.968H1085.02V23.968H1136.09V35.968H1117.47V88ZM1156.35 23.968H1169.98V46.72H1186.3C1200.13 46.72 1207.81 56.224 1207.81 67.36C1207.81 78.592 1200.22 88 1186.3 88H1156.35V23.968ZM1184.48 58.72H1169.98V76H1184.48C1189.86 76 1193.89 72.736 1193.89 67.36C1193.89 62.08 1189.86 58.72 1184.48 58.72ZM1226.91 88H1213.18V23.968H1226.91V88Z"/>
</mask>
<path d="M698.152 88V91H704.391L700.495 86.1267L698.152 88ZM681.352 88L678.96 89.81L679.86 91H681.352V88ZM661.96 62.368L664.352 60.558L662.081 57.5554L659.661 60.4402L661.96 62.368ZM656.968 68.32L654.669 66.3922L653.968 67.2285V68.32H656.968ZM656.968 88V91H659.968V88H656.968ZM643.336 88H640.336V91H643.336V88ZM643.336 23.968V20.968H640.336V23.968H643.336ZM656.968 23.968H659.968V20.968H656.968V23.968ZM656.968 52.576H653.968V61.1963L659.32 54.4385L656.968 52.576ZM679.624 23.968V20.968H678.173L677.272 22.1055L679.624 23.968ZM696.424 23.968L698.714 25.9065L702.895 20.968H696.424V23.968ZM670.984 54.016L668.694 52.0775L667.099 53.9613L668.641 55.8893L670.984 54.016ZM698.152 85H681.352V91H698.152V85ZM683.744 86.19L664.352 60.558L659.568 64.178L678.96 89.81L683.744 86.19ZM659.661 60.4402L654.669 66.3922L659.267 70.2478L664.259 64.2958L659.661 60.4402ZM653.968 68.32V88H659.968V68.32H653.968ZM656.968 85H643.336V91H656.968V85ZM646.336 88V23.968H640.336V88H646.336ZM643.336 26.968H656.968V20.968H643.336V26.968ZM653.968 23.968V52.576H659.968V23.968H653.968ZM659.32 54.4385L681.976 25.8305L677.272 22.1055L654.616 50.7135L659.32 54.4385ZM679.624 26.968H696.424V20.968H679.624V26.968ZM694.134 22.0295L668.694 52.0775L673.274 55.9545L698.714 25.9065L694.134 22.0295ZM668.641 55.8893L695.809 89.8733L700.495 86.1267L673.327 52.1427L668.641 55.8893ZM741.723 86.152C724.05 86.152 711.315 73.6368 711.315 56.032H705.315C705.315 77.0192 720.805 92.152 741.723 92.152V86.152ZM711.315 56.032C711.315 38.4272 724.05 25.912 741.723 25.912V19.912C720.805 19.912 705.315 35.0448 705.315 56.032H711.315ZM741.723 25.912C759.499 25.912 772.227 38.4329 772.227 56.032H778.227C778.227 35.0391 762.732 19.912 741.723 19.912V25.912ZM772.227 56.032C772.227 73.6311 759.499 86.152 741.723 86.152V92.152C762.732 92.152 778.227 77.0249 778.227 56.032H772.227ZM741.723 80.056C748.449 80.056 754.14 77.4363 758.124 73.0165C762.081 68.6255 764.211 62.6231 764.211 56.032H758.211C758.211 61.3449 756.501 65.8545 753.667 68.9995C750.858 72.1157 746.806 74.056 741.723 74.056V80.056ZM764.211 56.032C764.211 49.3975 762.084 43.3913 758.121 39.008C754.132 34.5964 748.439 32.008 741.723 32.008V38.008C746.816 38.008 750.867 39.9316 753.67 43.032C756.499 46.1607 758.211 50.6665 758.211 56.032H764.211ZM741.723 32.008C735.006 32.008 729.333 34.5982 725.367 39.0159C721.429 43.4025 719.331 49.4074 719.331 56.032H725.331C725.331 50.6566 727.026 46.1495 729.832 43.0241C732.61 39.9298 736.633 38.008 741.723 38.008V32.008ZM719.331 56.032C719.331 62.6131 721.431 68.6143 725.364 73.0086C729.324 77.4345 734.996 80.056 741.723 80.056V74.056C736.643 74.056 732.618 72.1175 729.835 69.0074C727.023 65.8657 725.331 61.3549 725.331 56.032H719.331ZM853.914 88V91H856.914V88H853.914ZM840.186 88H837.186V91H840.186V88ZM840.186 61.12H843.186V58.12H840.186V61.12ZM809.946 61.12V58.12H806.946V61.12H809.946ZM809.946 88V91H812.946V88H809.946ZM796.314 88H793.314V91H796.314V88ZM796.314 23.968V20.968H793.314V23.968H796.314ZM809.946 23.968H812.946V20.968H809.946V23.968ZM809.946 49.12H806.946V52.12H809.946V49.12ZM840.186 49.12V52.12H843.186V49.12H840.186ZM840.186 23.968V20.968H837.186V23.968H840.186ZM853.914 23.968H856.914V20.968H853.914V23.968ZM853.914 85H840.186V91H853.914V85ZM843.186 88V61.12H837.186V88H843.186ZM840.186 58.12H809.946V64.12H840.186V58.12ZM806.946 61.12V88H812.946V61.12H806.946ZM809.946 85H796.314V91H809.946V85ZM799.314 88V23.968H793.314V88H799.314ZM796.314 26.968H809.946V20.968H796.314V26.968ZM806.946 23.968V49.12H812.946V23.968H806.946ZM809.946 52.12H840.186V46.12H809.946V52.12ZM843.186 49.12V23.968H837.186V49.12H843.186ZM840.186 26.968H853.914V20.968H840.186V26.968ZM850.914 23.968V88H856.914V23.968H850.914ZM906.564 88V91H909.564V88H906.564ZM892.836 88H889.836V91H892.836V88ZM892.836 35.968H895.836V32.968H892.836V35.968ZM874.116 35.968H871.116V38.968H874.116V35.968ZM874.116 23.968V20.968H871.116V23.968H874.116ZM925.188 23.968H928.188V20.968H925.188V23.968ZM925.188 35.968V38.968H928.188V35.968H925.188ZM906.564 35.968V32.968H903.564V35.968H906.564ZM906.564 85H892.836V91H906.564V85ZM895.836 88V35.968H889.836V88H895.836ZM892.836 32.968H874.116V38.968H892.836V32.968ZM877.116 35.968V23.968H871.116V35.968H877.116ZM874.116 26.968H925.188V20.968H874.116V26.968ZM922.188 23.968V35.968H928.188V23.968H922.188ZM925.188 32.968H906.564V38.968H925.188V32.968ZM903.564 35.968V88H909.564V35.968H903.564ZM998.972 88V91H1003.34L1001.77 86.9214L998.972 88ZM983.42 88L980.6 89.0232L981.317 91H983.42V88ZM979.484 77.152L982.304 76.1288L981.587 74.152H979.484V77.152ZM952.028 77.152V74.152H949.942L949.216 76.1068L952.028 77.152ZM947.996 88V91H950.081L950.808 89.0452L947.996 88ZM932.444 88L929.646 86.9177L928.067 91H932.444V88ZM957.212 23.968V20.968H955.156L954.414 22.8857L957.212 23.968ZM974.3 23.968L977.099 22.8894L976.359 20.968H974.3V23.968ZM975.74 65.152V68.152H980.018L978.56 64.1299L975.74 65.152ZM965.756 37.6L968.576 36.5779L965.756 28.7944L962.935 36.5779L965.756 37.6ZM955.772 65.152L952.951 64.1299L951.494 68.152H955.772V65.152ZM998.972 85H983.42V91H998.972V85ZM986.24 86.9768L982.304 76.1288L976.664 78.1752L980.6 89.0232L986.24 86.9768ZM979.484 74.152H952.028V80.152H979.484V74.152ZM949.216 76.1068L945.184 86.9548L950.808 89.0452L954.84 78.1972L949.216 76.1068ZM947.996 85H932.444V91H947.996V85ZM935.242 89.0823L960.01 25.0503L954.414 22.8857L929.646 86.9177L935.242 89.0823ZM957.212 26.968H974.3V20.968H957.212V26.968ZM971.5 25.0466L996.172 89.0786L1001.77 86.9214L977.099 22.8894L971.5 25.0466ZM978.56 64.1299L968.576 36.5779L962.935 38.6221L972.919 66.1741L978.56 64.1299ZM962.935 36.5779L952.951 64.1299L958.592 66.1741L968.576 38.6221L962.935 36.5779ZM955.772 68.152H975.74V62.152H955.772V68.152ZM1071.22 88V91H1077.46L1073.56 86.1267L1071.22 88ZM1054.42 88L1052.03 89.81L1052.93 91H1054.42V88ZM1035.03 62.368L1037.42 60.558L1035.15 57.5554L1032.73 60.4402L1035.03 62.368ZM1030.04 68.32L1027.74 66.3922L1027.04 67.2285V68.32H1030.04ZM1030.04 88V91H1033.04V88H1030.04ZM1016.4 88H1013.4V91H1016.4V88ZM1016.4 23.968V20.968H1013.4V23.968H1016.4ZM1030.04 23.968H1033.04V20.968H1030.04V23.968ZM1030.04 52.576H1027.04V61.1963L1032.39 54.4385L1030.04 52.576ZM1052.69 23.968V20.968H1051.24L1050.34 22.1055L1052.69 23.968ZM1069.49 23.968L1071.78 25.9065L1075.96 20.968H1069.49V23.968ZM1044.05 54.016L1041.76 52.0775L1040.17 53.9613L1041.71 55.8893L1044.05 54.016ZM1071.22 85H1054.42V91H1071.22V85ZM1056.81 86.19L1037.42 60.558L1032.64 64.178L1052.03 89.81L1056.81 86.19ZM1032.73 60.4402L1027.74 66.3922L1032.34 70.2478L1037.33 64.2958L1032.73 60.4402ZM1027.04 68.32V88H1033.04V68.32H1027.04ZM1030.04 85H1016.4V91H1030.04V85ZM1019.4 88V23.968H1013.4V88H1019.4ZM1016.4 26.968H1030.04V20.968H1016.4V26.968ZM1027.04 23.968V52.576H1033.04V23.968H1027.04ZM1032.39 54.4385L1055.04 25.8305L1050.34 22.1055L1027.68 50.7135L1032.39 54.4385ZM1052.69 26.968H1069.49V20.968H1052.69V26.968ZM1067.2 22.0295L1041.76 52.0775L1046.34 55.9545L1071.78 25.9065L1067.2 22.0295ZM1041.71 55.8893L1068.88 89.8733L1073.56 86.1267L1046.4 52.1427L1041.71 55.8893ZM1117.47 88V91H1120.47V88H1117.47ZM1103.74 88H1100.74V91H1103.74V88ZM1103.74 35.968H1106.74V32.968H1103.74V35.968ZM1085.02 35.968H1082.02V38.968H1085.02V35.968ZM1085.02 23.968V20.968H1082.02V23.968H1085.02ZM1136.09 23.968H1139.09V20.968H1136.09V23.968ZM1136.09 35.968V38.968H1139.09V35.968H1136.09ZM1117.47 35.968V32.968H1114.47V35.968H1117.47ZM1117.47 85H1103.74V91H1117.47V85ZM1106.74 88V35.968H1100.74V88H1106.74ZM1103.74 32.968H1085.02V38.968H1103.74V32.968ZM1088.02 35.968V23.968H1082.02V35.968H1088.02ZM1085.02 26.968H1136.09V20.968H1085.02V26.968ZM1133.09 23.968V35.968H1139.09V23.968H1133.09ZM1136.09 32.968H1117.47V38.968H1136.09V32.968ZM1114.47 35.968V88H1120.47V35.968H1114.47ZM1156.35 23.968V20.968H1153.35V23.968H1156.35ZM1169.98 23.968H1172.98V20.968H1169.98V23.968ZM1169.98 46.72H1166.98V49.72H1169.98V46.72ZM1156.35 88H1153.35V91H1156.35V88ZM1169.98 58.72V55.72H1166.98V58.72H1169.98ZM1169.98 76H1166.98V79H1169.98V76ZM1226.91 88V91H1229.91V88H1226.91ZM1213.18 88H1210.18V91H1213.18V88ZM1213.18 23.968V20.968H1210.18V23.968H1213.18ZM1226.91 23.968H1229.91V20.968H1226.91V23.968ZM1156.35 26.968H1169.98V20.968H1156.35V26.968ZM1166.98 23.968V46.72H1172.98V23.968H1166.98ZM1169.98 49.72H1186.3V43.72H1169.98V49.72ZM1186.3 49.72C1192.49 49.72 1197.06 51.8288 1200.08 54.9507C1203.13 58.0968 1204.81 62.4796 1204.81 67.36H1210.81C1210.81 61.1044 1208.64 55.1672 1204.39 50.7773C1200.12 46.3632 1193.94 43.72 1186.3 43.72V49.72ZM1204.81 67.36C1204.81 72.3033 1203.14 76.6808 1200.12 79.8054C1197.12 82.9062 1192.56 85 1186.3 85V91C1193.97 91 1200.16 88.3898 1204.43 83.9786C1208.68 79.5912 1210.81 73.6487 1210.81 67.36H1204.81ZM1186.3 85H1156.35V91H1186.3V85ZM1159.35 88V23.968H1153.35V88H1159.35ZM1184.48 55.72H1169.98V61.72H1184.48V55.72ZM1166.98 58.72V76H1172.98V58.72H1166.98ZM1169.98 79H1184.48V73H1169.98V79ZM1184.48 79C1187.76 79 1190.86 78.0005 1193.19 75.9418C1195.55 73.8481 1196.89 70.8506 1196.89 67.36H1190.89C1190.89 69.2454 1190.21 70.5679 1189.21 71.4502C1188.17 72.3675 1186.57 73 1184.48 73V79ZM1196.89 67.36C1196.89 63.9056 1195.54 60.9176 1193.2 58.8222C1190.88 56.7563 1187.78 55.72 1184.48 55.72V61.72C1186.55 61.72 1188.15 62.3637 1189.2 63.2978C1190.21 64.2024 1190.89 65.5344 1190.89 67.36H1196.89ZM1226.91 85H1213.18V91H1226.91V85ZM1216.18 88V23.968H1210.18V88H1216.18ZM1213.18 26.968H1226.91V20.968H1213.18V26.968ZM1223.91 23.968V88H1229.91V23.968H1223.91Z" fill="#9E9E9E" mask="url(#path-3-outside-2_200_10)"/>
<mask id="path-5-outside-3_200_10" maskUnits="userSpaceOnUse" x="1277" y="19" width="590" height="74" fill="black">
<rect fill="white" x="1277" y="19" width="590" height="74"/>
<path d="M1335.15 88H1318.35L1298.96 62.368L1293.97 68.32V88H1280.34V23.968H1293.97V52.576L1316.62 23.968H1333.42L1307.98 54.016L1335.15 88ZM1378.72 89.152C1359.43 89.152 1345.32 75.328 1345.32 56.032C1345.32 36.736 1359.43 22.912 1378.72 22.912C1398.12 22.912 1412.23 36.736 1412.23 56.032C1412.23 75.328 1398.12 89.152 1378.72 89.152ZM1378.72 77.056C1390.53 77.056 1398.21 67.936 1398.21 56.032C1398.21 44.032 1390.53 35.008 1378.72 35.008C1366.92 35.008 1359.33 44.032 1359.33 56.032C1359.33 67.936 1366.92 77.056 1378.72 77.056ZM1490.91 88H1477.19V61.12H1446.95V88H1433.31V23.968H1446.95V49.12H1477.19V23.968H1490.91V88ZM1543.56 88H1529.84V35.968H1511.12V23.968H1562.19V35.968H1543.56V88ZM1635.97 88H1620.42L1616.48 77.152H1589.03L1585 88H1569.44L1594.21 23.968H1611.3L1635.97 88ZM1612.74 65.152L1602.76 37.6L1592.77 65.152H1612.74ZM1708.22 88H1691.42L1672.03 62.368L1667.04 68.32V88H1653.4V23.968H1667.04V52.576L1689.69 23.968H1706.49L1681.05 54.016L1708.22 88ZM1754.47 88H1740.74V35.968H1722.02V23.968H1773.09V35.968H1754.47V88ZM1793.35 23.968H1806.98V46.72H1823.3C1837.13 46.72 1844.81 56.224 1844.81 67.36C1844.81 78.592 1837.22 88 1823.3 88H1793.35V23.968ZM1821.48 58.72H1806.98V76H1821.48C1826.86 76 1830.89 72.736 1830.89 67.36C1830.89 62.08 1826.86 58.72 1821.48 58.72ZM1863.91 88H1850.18V23.968H1863.91V88Z"/>
</mask>
<path d="M1335.15 88V91H1341.39L1337.5 86.1267L1335.15 88ZM1318.35 88L1315.96 89.81L1316.86 91H1318.35V88ZM1298.96 62.368L1301.35 60.558L1299.08 57.5554L1296.66 60.4402L1298.96 62.368ZM1293.97 68.32L1291.67 66.3922L1290.97 67.2285V68.32H1293.97ZM1293.97 88V91H1296.97V88H1293.97ZM1280.34 88H1277.34V91H1280.34V88ZM1280.34 23.968V20.968H1277.34V23.968H1280.34ZM1293.97 23.968H1296.97V20.968H1293.97V23.968ZM1293.97 52.576H1290.97V61.1963L1296.32 54.4385L1293.97 52.576ZM1316.62 23.968V20.968H1315.17L1314.27 22.1055L1316.62 23.968ZM1333.42 23.968L1335.71 25.9065L1339.89 20.968H1333.42V23.968ZM1307.98 54.016L1305.69 52.0775L1304.1 53.9613L1305.64 55.8893L1307.98 54.016ZM1335.15 85H1318.35V91H1335.15V85ZM1320.74 86.19L1301.35 60.558L1296.57 64.178L1315.96 89.81L1320.74 86.19ZM1296.66 60.4402L1291.67 66.3922L1296.27 70.2478L1301.26 64.2958L1296.66 60.4402ZM1290.97 68.32V88H1296.97V68.32H1290.97ZM1293.97 85H1280.34V91H1293.97V85ZM1283.34 88V23.968H1277.34V88H1283.34ZM1280.34 26.968H1293.97V20.968H1280.34V26.968ZM1290.97 23.968V52.576H1296.97V23.968H1290.97ZM1296.32 54.4385L1318.98 25.8305L1314.27 22.1055L1291.62 50.7135L1296.32 54.4385ZM1316.62 26.968H1333.42V20.968H1316.62V26.968ZM1331.13 22.0295L1305.69 52.0775L1310.27 55.9545L1335.71 25.9065L1331.13 22.0295ZM1305.64 55.8893L1332.81 89.8733L1337.5 86.1267L1310.33 52.1427L1305.64 55.8893ZM1378.72 86.152C1361.05 86.152 1348.32 73.6368 1348.32 56.032H1342.32C1342.32 77.0192 1357.8 92.152 1378.72 92.152V86.152ZM1348.32 56.032C1348.32 38.4272 1361.05 25.912 1378.72 25.912V19.912C1357.8 19.912 1342.32 35.0448 1342.32 56.032H1348.32ZM1378.72 25.912C1396.5 25.912 1409.23 38.4329 1409.23 56.032H1415.23C1415.23 35.0391 1399.73 19.912 1378.72 19.912V25.912ZM1409.23 56.032C1409.23 73.6311 1396.5 86.152 1378.72 86.152V92.152C1399.73 92.152 1415.23 77.0249 1415.23 56.032H1409.23ZM1378.72 80.056C1385.45 80.056 1391.14 77.4363 1395.12 73.0165C1399.08 68.6255 1401.21 62.6231 1401.21 56.032H1395.21C1395.21 61.3449 1393.5 65.8545 1390.67 68.9995C1387.86 72.1157 1383.81 74.056 1378.72 74.056V80.056ZM1401.21 56.032C1401.21 49.3975 1399.08 43.3913 1395.12 39.008C1391.13 34.5964 1385.44 32.008 1378.72 32.008V38.008C1383.82 38.008 1387.87 39.9316 1390.67 43.032C1393.5 46.1607 1395.21 50.6665 1395.21 56.032H1401.21ZM1378.72 32.008C1372.01 32.008 1366.33 34.5982 1362.37 39.0159C1358.43 43.4025 1356.33 49.4074 1356.33 56.032H1362.33C1362.33 50.6566 1364.03 46.1495 1366.83 43.0241C1369.61 39.9298 1373.63 38.008 1378.72 38.008V32.008ZM1356.33 56.032C1356.33 62.6131 1358.43 68.6143 1362.36 73.0086C1366.32 77.4345 1372 80.056 1378.72 80.056V74.056C1373.64 74.056 1369.62 72.1175 1366.83 69.0074C1364.02 65.8657 1362.33 61.3549 1362.33 56.032H1356.33ZM1490.91 88V91H1493.91V88H1490.91ZM1477.19 88H1474.19V91H1477.19V88ZM1477.19 61.12H1480.19V58.12H1477.19V61.12ZM1446.95 61.12V58.12H1443.95V61.12H1446.95ZM1446.95 88V91H1449.95V88H1446.95ZM1433.31 88H1430.31V91H1433.31V88ZM1433.31 23.968V20.968H1430.31V23.968H1433.31ZM1446.95 23.968H1449.95V20.968H1446.95V23.968ZM1446.95 49.12H1443.95V52.12H1446.95V49.12ZM1477.19 49.12V52.12H1480.19V49.12H1477.19ZM1477.19 23.968V20.968H1474.19V23.968H1477.19ZM1490.91 23.968H1493.91V20.968H1490.91V23.968ZM1490.91 85H1477.19V91H1490.91V85ZM1480.19 88V61.12H1474.19V88H1480.19ZM1477.19 58.12H1446.95V64.12H1477.19V58.12ZM1443.95 61.12V88H1449.95V61.12H1443.95ZM1446.95 85H1433.31V91H1446.95V85ZM1436.31 88V23.968H1430.31V88H1436.31ZM1433.31 26.968H1446.95V20.968H1433.31V26.968ZM1443.95 23.968V49.12H1449.95V23.968H1443.95ZM1446.95 52.12H1477.19V46.12H1446.95V52.12ZM1480.19 49.12V23.968H1474.19V49.12H1480.19ZM1477.19 26.968H1490.91V20.968H1477.19V26.968ZM1487.91 23.968V88H1493.91V23.968H1487.91ZM1543.56 88V91H1546.56V88H1543.56ZM1529.84 88H1526.84V91H1529.84V88ZM1529.84 35.968H1532.84V32.968H1529.84V35.968ZM1511.12 35.968H1508.12V38.968H1511.12V35.968ZM1511.12 23.968V20.968H1508.12V23.968H1511.12ZM1562.19 23.968H1565.19V20.968H1562.19V23.968ZM1562.19 35.968V38.968H1565.19V35.968H1562.19ZM1543.56 35.968V32.968H1540.56V35.968H1543.56ZM1543.56 85H1529.84V91H1543.56V85ZM1532.84 88V35.968H1526.84V88H1532.84ZM1529.84 32.968H1511.12V38.968H1529.84V32.968ZM1514.12 35.968V23.968H1508.12V35.968H1514.12ZM1511.12 26.968H1562.19V20.968H1511.12V26.968ZM1559.19 23.968V35.968H1565.19V23.968H1559.19ZM1562.19 32.968H1543.56V38.968H1562.19V32.968ZM1540.56 35.968V88H1546.56V35.968H1540.56ZM1635.97 88V91H1640.34L1638.77 86.9214L1635.97 88ZM1620.42 88L1617.6 89.0232L1618.32 91H1620.42V88ZM1616.48 77.152L1619.3 76.1288L1618.59 74.152H1616.48V77.152ZM1589.03 77.152V74.152H1586.94L1586.22 76.1068L1589.03 77.152ZM1585 88V91H1587.08L1587.81 89.0452L1585 88ZM1569.44 88L1566.65 86.9177L1565.07 91H1569.44V88ZM1594.21 23.968V20.968H1592.16L1591.41 22.8857L1594.21 23.968ZM1611.3 23.968L1614.1 22.8894L1613.36 20.968H1611.3V23.968ZM1612.74 65.152V68.152H1617.02L1615.56 64.1299L1612.74 65.152ZM1602.76 37.6L1605.58 36.5779L1602.76 28.7944L1599.94 36.5779L1602.76 37.6ZM1592.77 65.152L1589.95 64.1299L1588.49 68.152H1592.77V65.152ZM1635.97 85H1620.42V91H1635.97V85ZM1623.24 86.9768L1619.3 76.1288L1613.66 78.1752L1617.6 89.0232L1623.24 86.9768ZM1616.48 74.152H1589.03V80.152H1616.48V74.152ZM1586.22 76.1068L1582.18 86.9548L1587.81 89.0452L1591.84 78.1972L1586.22 76.1068ZM1585 85H1569.44V91H1585V85ZM1572.24 89.0823L1597.01 25.0503L1591.41 22.8857L1566.65 86.9177L1572.24 89.0823ZM1594.21 26.968H1611.3V20.968H1594.21V26.968ZM1608.5 25.0466L1633.17 89.0786L1638.77 86.9214L1614.1 22.8894L1608.5 25.0466ZM1615.56 64.1299L1605.58 36.5779L1599.94 38.6221L1609.92 66.1741L1615.56 64.1299ZM1599.94 36.5779L1589.95 64.1299L1595.59 66.1741L1605.58 38.6221L1599.94 36.5779ZM1592.77 68.152H1612.74V62.152H1592.77V68.152ZM1708.22 88V91H1714.46L1710.56 86.1267L1708.22 88ZM1691.42 88L1689.03 89.81L1689.93 91H1691.42V88ZM1672.03 62.368L1674.42 60.558L1672.15 57.5554L1669.73 60.4402L1672.03 62.368ZM1667.04 68.32L1664.74 66.3922L1664.04 67.2285V68.32H1667.04ZM1667.04 88V91H1670.04V88H1667.04ZM1653.4 88H1650.4V91H1653.4V88ZM1653.4 23.968V20.968H1650.4V23.968H1653.4ZM1667.04 23.968H1670.04V20.968H1667.04V23.968ZM1667.04 52.576H1664.04V61.1963L1669.39 54.4385L1667.04 52.576ZM1689.69 23.968V20.968H1688.24L1687.34 22.1055L1689.69 23.968ZM1706.49 23.968L1708.78 25.9065L1712.96 20.968H1706.49V23.968ZM1681.05 54.016L1678.76 52.0775L1677.17 53.9613L1678.71 55.8893L1681.05 54.016ZM1708.22 85H1691.42V91H1708.22V85ZM1693.81 86.19L1674.42 60.558L1669.64 64.178L1689.03 89.81L1693.81 86.19ZM1669.73 60.4402L1664.74 66.3922L1669.34 70.2478L1674.33 64.2958L1669.73 60.4402ZM1664.04 68.32V88H1670.04V68.32H1664.04ZM1667.04 85H1653.4V91H1667.04V85ZM1656.4 88V23.968H1650.4V88H1656.4ZM1653.4 26.968H1667.04V20.968H1653.4V26.968ZM1664.04 23.968V52.576H1670.04V23.968H1664.04ZM1669.39 54.4385L1692.04 25.8305L1687.34 22.1055L1664.68 50.7135L1669.39 54.4385ZM1689.69 26.968H1706.49V20.968H1689.69V26.968ZM1704.2 22.0295L1678.76 52.0775L1683.34 55.9545L1708.78 25.9065L1704.2 22.0295ZM1678.71 55.8893L1705.88 89.8733L1710.56 86.1267L1683.4 52.1427L1678.71 55.8893ZM1754.47 88V91H1757.47V88H1754.47ZM1740.74 88H1737.74V91H1740.74V88ZM1740.74 35.968H1743.74V32.968H1740.74V35.968ZM1722.02 35.968H1719.02V38.968H1722.02V35.968ZM1722.02 23.968V20.968H1719.02V23.968H1722.02ZM1773.09 23.968H1776.09V20.968H1773.09V23.968ZM1773.09 35.968V38.968H1776.09V35.968H1773.09ZM1754.47 35.968V32.968H1751.47V35.968H1754.47ZM1754.47 85H1740.74V91H1754.47V85ZM1743.74 88V35.968H1737.74V88H1743.74ZM1740.74 32.968H1722.02V38.968H1740.74V32.968ZM1725.02 35.968V23.968H1719.02V35.968H1725.02ZM1722.02 26.968H1773.09V20.968H1722.02V26.968ZM1770.09 23.968V35.968H1776.09V23.968H1770.09ZM1773.09 32.968H1754.47V38.968H1773.09V32.968ZM1751.47 35.968V88H1757.47V35.968H1751.47ZM1793.35 23.968V20.968H1790.35V23.968H1793.35ZM1806.98 23.968H1809.98V20.968H1806.98V23.968ZM1806.98 46.72H1803.98V49.72H1806.98V46.72ZM1793.35 88H1790.35V91H1793.35V88ZM1806.98 58.72V55.72H1803.98V58.72H1806.98ZM1806.98 76H1803.98V79H1806.98V76ZM1863.91 88V91H1866.91V88H1863.91ZM1850.18 88H1847.18V91H1850.18V88ZM1850.18 23.968V20.968H1847.18V23.968H1850.18ZM1863.91 23.968H1866.91V20.968H1863.91V23.968ZM1793.35 26.968H1806.98V20.968H1793.35V26.968ZM1803.98 23.968V46.72H1809.98V23.968H1803.98ZM1806.98 49.72H1823.3V43.72H1806.98V49.72ZM1823.3 49.72C1829.49 49.72 1834.06 51.8288 1837.08 54.9507C1840.13 58.0968 1841.81 62.4796 1841.81 67.36H1847.81C1847.81 61.1044 1845.64 55.1672 1841.39 50.7773C1837.12 46.3632 1830.94 43.72 1823.3 43.72V49.72ZM1841.81 67.36C1841.81 72.3033 1840.14 76.6808 1837.12 79.8054C1834.12 82.9062 1829.56 85 1823.3 85V91C1830.97 91 1837.16 88.3898 1841.43 83.9786C1845.68 79.5912 1847.81 73.6487 1847.81 67.36H1841.81ZM1823.3 85H1793.35V91H1823.3V85ZM1796.35 88V23.968H1790.35V88H1796.35ZM1821.48 55.72H1806.98V61.72H1821.48V55.72ZM1803.98 58.72V76H1809.98V58.72H1803.98ZM1806.98 79H1821.48V73H1806.98V79ZM1821.48 79C1824.76 79 1827.86 78.0005 1830.19 75.9418C1832.55 73.8481 1833.89 70.8506 1833.89 67.36H1827.89C1827.89 69.2454 1827.21 70.5679 1826.21 71.4502C1825.17 72.3675 1823.57 73 1821.48 73V79ZM1833.89 67.36C1833.89 63.9056 1832.54 60.9176 1830.2 58.8222C1827.88 56.7563 1824.78 55.72 1821.48 55.72V61.72C1823.55 61.72 1825.15 62.3637 1826.2 63.2978C1827.21 64.2024 1827.89 65.5344 1827.89 67.36H1833.89ZM1863.91 85H1850.18V91H1863.91V85ZM1853.18 88V23.968H1847.18V88H1853.18ZM1850.18 26.968H1863.91V20.968H1850.18V26.968ZM1860.91 23.968V88H1866.91V23.968H1860.91Z" fill="#9E9E9E" mask="url(#path-5-outside-3_200_10)"/>
<mask id="path-7-outside-4_200_10" maskUnits="userSpaceOnUse" x="1914" y="19" width="590" height="74" fill="black">
<rect fill="white" x="1914" y="19" width="590" height="74"/>
<path d="M1972.15 88H1955.35L1935.96 62.368L1930.97 68.32V88H1917.34V23.968H1930.97V52.576L1953.62 23.968H1970.42L1944.98 54.016L1972.15 88ZM2015.72 89.152C1996.43 89.152 1982.32 75.328 1982.32 56.032C1982.32 36.736 1996.43 22.912 2015.72 22.912C2035.12 22.912 2049.23 36.736 2049.23 56.032C2049.23 75.328 2035.12 89.152 2015.72 89.152ZM2015.72 77.056C2027.53 77.056 2035.21 67.936 2035.21 56.032C2035.21 44.032 2027.53 35.008 2015.72 35.008C2003.92 35.008 1996.33 44.032 1996.33 56.032C1996.33 67.936 2003.92 77.056 2015.72 77.056ZM2127.91 88H2114.19V61.12H2083.95V88H2070.31V23.968H2083.95V49.12H2114.19V23.968H2127.91V88ZM2180.56 88H2166.84V35.968H2148.12V23.968H2199.19V35.968H2180.56V88ZM2272.97 88H2257.42L2253.48 77.152H2226.03L2222 88H2206.44L2231.21 23.968H2248.3L2272.97 88ZM2249.74 65.152L2239.76 37.6L2229.77 65.152H2249.74ZM2345.22 88H2328.42L2309.03 62.368L2304.04 68.32V88H2290.4V23.968H2304.04V52.576L2326.69 23.968H2343.49L2318.05 54.016L2345.22 88ZM2391.47 88H2377.74V35.968H2359.02V23.968H2410.09V35.968H2391.47V88ZM2430.35 23.968H2443.98V46.72H2460.3C2474.13 46.72 2481.81 56.224 2481.81 67.36C2481.81 78.592 2474.22 88 2460.3 88H2430.35V23.968ZM2458.48 58.72H2443.98V76H2458.48C2463.86 76 2467.89 72.736 2467.89 67.36C2467.89 62.08 2463.86 58.72 2458.48 58.72ZM2500.91 88H2487.18V23.968H2500.91V88Z"/>
</mask>
<path d="M1972.15 88V91H1978.39L1974.5 86.1267L1972.15 88ZM1955.35 88L1952.96 89.81L1953.86 91H1955.35V88ZM1935.96 62.368L1938.35 60.558L1936.08 57.5554L1933.66 60.4402L1935.96 62.368ZM1930.97 68.32L1928.67 66.3922L1927.97 67.2285V68.32H1930.97ZM1930.97 88V91H1933.97V88H1930.97ZM1917.34 88H1914.34V91H1917.34V88ZM1917.34 23.968V20.968H1914.34V23.968H1917.34ZM1930.97 23.968H1933.97V20.968H1930.97V23.968ZM1930.97 52.576H1927.97V61.1963L1933.32 54.4385L1930.97 52.576ZM1953.62 23.968V20.968H1952.17L1951.27 22.1055L1953.62 23.968ZM1970.42 23.968L1972.71 25.9065L1976.89 20.968H1970.42V23.968ZM1944.98 54.016L1942.69 52.0775L1941.1 53.9613L1942.64 55.8893L1944.98 54.016ZM1972.15 85H1955.35V91H1972.15V85ZM1957.74 86.19L1938.35 60.558L1933.57 64.178L1952.96 89.81L1957.74 86.19ZM1933.66 60.4402L1928.67 66.3922L1933.27 70.2478L1938.26 64.2958L1933.66 60.4402ZM1927.97 68.32V88H1933.97V68.32H1927.97ZM1930.97 85H1917.34V91H1930.97V85ZM1920.34 88V23.968H1914.34V88H1920.34ZM1917.34 26.968H1930.97V20.968H1917.34V26.968ZM1927.97 23.968V52.576H1933.97V23.968H1927.97ZM1933.32 54.4385L1955.98 25.8305L1951.27 22.1055L1928.62 50.7135L1933.32 54.4385ZM1953.62 26.968H1970.42V20.968H1953.62V26.968ZM1968.13 22.0295L1942.69 52.0775L1947.27 55.9545L1972.71 25.9065L1968.13 22.0295ZM1942.64 55.8893L1969.81 89.8733L1974.5 86.1267L1947.33 52.1427L1942.64 55.8893ZM2015.72 86.152C1998.05 86.152 1985.32 73.6368 1985.32 56.032H1979.32C1979.32 77.0192 1994.8 92.152 2015.72 92.152V86.152ZM1985.32 56.032C1985.32 38.4272 1998.05 25.912 2015.72 25.912V19.912C1994.8 19.912 1979.32 35.0448 1979.32 56.032H1985.32ZM2015.72 25.912C2033.5 25.912 2046.23 38.4329 2046.23 56.032H2052.23C2052.23 35.0391 2036.73 19.912 2015.72 19.912V25.912ZM2046.23 56.032C2046.23 73.6311 2033.5 86.152 2015.72 86.152V92.152C2036.73 92.152 2052.23 77.0249 2052.23 56.032H2046.23ZM2015.72 80.056C2022.45 80.056 2028.14 77.4363 2032.12 73.0165C2036.08 68.6255 2038.21 62.6231 2038.21 56.032H2032.21C2032.21 61.3449 2030.5 65.8545 2027.67 68.9995C2024.86 72.1157 2020.81 74.056 2015.72 74.056V80.056ZM2038.21 56.032C2038.21 49.3975 2036.08 43.3913 2032.12 39.008C2028.13 34.5964 2022.44 32.008 2015.72 32.008V38.008C2020.82 38.008 2024.87 39.9316 2027.67 43.032C2030.5 46.1607 2032.21 50.6665 2032.21 56.032H2038.21ZM2015.72 32.008C2009.01 32.008 2003.33 34.5982 1999.37 39.0159C1995.43 43.4025 1993.33 49.4074 1993.33 56.032H1999.33C1999.33 50.6566 2001.03 46.1495 2003.83 43.0241C2006.61 39.9298 2010.63 38.008 2015.72 38.008V32.008ZM1993.33 56.032C1993.33 62.6131 1995.43 68.6143 1999.36 73.0086C2003.32 77.4345 2009 80.056 2015.72 80.056V74.056C2010.64 74.056 2006.62 72.1175 2003.83 69.0074C2001.02 65.8657 1999.33 61.3549 1999.33 56.032H1993.33ZM2127.91 88V91H2130.91V88H2127.91ZM2114.19 88H2111.19V91H2114.19V88ZM2114.19 61.12H2117.19V58.12H2114.19V61.12ZM2083.95 61.12V58.12H2080.95V61.12H2083.95ZM2083.95 88V91H2086.95V88H2083.95ZM2070.31 88H2067.31V91H2070.31V88ZM2070.31 23.968V20.968H2067.31V23.968H2070.31ZM2083.95 23.968H2086.95V20.968H2083.95V23.968ZM2083.95 49.12H2080.95V52.12H2083.95V49.12ZM2114.19 49.12V52.12H2117.19V49.12H2114.19ZM2114.19 23.968V20.968H2111.19V23.968H2114.19ZM2127.91 23.968H2130.91V20.968H2127.91V23.968ZM2127.91 85H2114.19V91H2127.91V85ZM2117.19 88V61.12H2111.19V88H2117.19ZM2114.19 58.12H2083.95V64.12H2114.19V58.12ZM2080.95 61.12V88H2086.95V61.12H2080.95ZM2083.95 85H2070.31V91H2083.95V85ZM2073.31 88V23.968H2067.31V88H2073.31ZM2070.31 26.968H2083.95V20.968H2070.31V26.968ZM2080.95 23.968V49.12H2086.95V23.968H2080.95ZM2083.95 52.12H2114.19V46.12H2083.95V52.12ZM2117.19 49.12V23.968H2111.19V49.12H2117.19ZM2114.19 26.968H2127.91V20.968H2114.19V26.968ZM2124.91 23.968V88H2130.91V23.968H2124.91ZM2180.56 88V91H2183.56V88H2180.56ZM2166.84 88H2163.84V91H2166.84V88ZM2166.84 35.968H2169.84V32.968H2166.84V35.968ZM2148.12 35.968H2145.12V38.968H2148.12V35.968ZM2148.12 23.968V20.968H2145.12V23.968H2148.12ZM2199.19 23.968H2202.19V20.968H2199.19V23.968ZM2199.19 35.968V38.968H2202.19V35.968H2199.19ZM2180.56 35.968V32.968H2177.56V35.968H2180.56ZM2180.56 85H2166.84V91H2180.56V85ZM2169.84 88V35.968H2163.84V88H2169.84ZM2166.84 32.968H2148.12V38.968H2166.84V32.968ZM2151.12 35.968V23.968H2145.12V35.968H2151.12ZM2148.12 26.968H2199.19V20.968H2148.12V26.968ZM2196.19 23.968V35.968H2202.19V23.968H2196.19ZM2199.19 32.968H2180.56V38.968H2199.19V32.968ZM2177.56 35.968V88H2183.56V35.968H2177.56ZM2272.97 88V91H2277.34L2275.77 86.9214L2272.97 88ZM2257.42 88L2254.6 89.0232L2255.32 91H2257.42V88ZM2253.48 77.152L2256.3 76.1288L2255.59 74.152H2253.48V77.152ZM2226.03 77.152V74.152H2223.94L2223.22 76.1068L2226.03 77.152ZM2222 88V91H2224.08L2224.81 89.0452L2222 88ZM2206.44 88L2203.65 86.9177L2202.07 91H2206.44V88ZM2231.21 23.968V20.968H2229.16L2228.41 22.8857L2231.21 23.968ZM2248.3 23.968L2251.1 22.8894L2250.36 20.968H2248.3V23.968ZM2249.74 65.152V68.152H2254.02L2252.56 64.1299L2249.74 65.152ZM2239.76 37.6L2242.58 36.5779L2239.76 28.7944L2236.94 36.5779L2239.76 37.6ZM2229.77 65.152L2226.95 64.1299L2225.49 68.152H2229.77V65.152ZM2272.97 85H2257.42V91H2272.97V85ZM2260.24 86.9768L2256.3 76.1288L2250.66 78.1752L2254.6 89.0232L2260.24 86.9768ZM2253.48 74.152H2226.03V80.152H2253.48V74.152ZM2223.22 76.1068L2219.18 86.9548L2224.81 89.0452L2228.84 78.1972L2223.22 76.1068ZM2222 85H2206.44V91H2222V85ZM2209.24 89.0823L2234.01 25.0503L2228.41 22.8857L2203.65 86.9177L2209.24 89.0823ZM2231.21 26.968H2248.3V20.968H2231.21V26.968ZM2245.5 25.0466L2270.17 89.0786L2275.77 86.9214L2251.1 22.8894L2245.5 25.0466ZM2252.56 64.1299L2242.58 36.5779L2236.94 38.6221L2246.92 66.1741L2252.56 64.1299ZM2236.94 36.5779L2226.95 64.1299L2232.59 66.1741L2242.58 38.6221L2236.94 36.5779ZM2229.77 68.152H2249.74V62.152H2229.77V68.152ZM2345.22 88V91H2351.46L2347.56 86.1267L2345.22 88ZM2328.42 88L2326.03 89.81L2326.93 91H2328.42V88ZM2309.03 62.368L2311.42 60.558L2309.15 57.5554L2306.73 60.4402L2309.03 62.368ZM2304.04 68.32L2301.74 66.3922L2301.04 67.2285V68.32H2304.04ZM2304.04 88V91H2307.04V88H2304.04ZM2290.4 88H2287.4V91H2290.4V88ZM2290.4 23.968V20.968H2287.4V23.968H2290.4ZM2304.04 23.968H2307.04V20.968H2304.04V23.968ZM2304.04 52.576H2301.04V61.1963L2306.39 54.4385L2304.04 52.576ZM2326.69 23.968V20.968H2325.24L2324.34 22.1055L2326.69 23.968ZM2343.49 23.968L2345.78 25.9065L2349.96 20.968H2343.49V23.968ZM2318.05 54.016L2315.76 52.0775L2314.17 53.9613L2315.71 55.8893L2318.05 54.016ZM2345.22 85H2328.42V91H2345.22V85ZM2330.81 86.19L2311.42 60.558L2306.64 64.178L2326.03 89.81L2330.81 86.19ZM2306.73 60.4402L2301.74 66.3922L2306.34 70.2478L2311.33 64.2958L2306.73 60.4402ZM2301.04 68.32V88H2307.04V68.32H2301.04ZM2304.04 85H2290.4V91H2304.04V85ZM2293.4 88V23.968H2287.4V88H2293.4ZM2290.4 26.968H2304.04V20.968H2290.4V26.968ZM2301.04 23.968V52.576H2307.04V23.968H2301.04ZM2306.39 54.4385L2329.04 25.8305L2324.34 22.1055L2301.68 50.7135L2306.39 54.4385ZM2326.69 26.968H2343.49V20.968H2326.69V26.968ZM2341.2 22.0295L2315.76 52.0775L2320.34 55.9545L2345.78 25.9065L2341.2 22.0295ZM2315.71 55.8893L2342.88 89.8733L2347.56 86.1267L2320.4 52.1427L2315.71 55.8893ZM2391.47 88V91H2394.47V88H2391.47ZM2377.74 88H2374.74V91H2377.74V88ZM2377.74 35.968H2380.74V32.968H2377.74V35.968ZM2359.02 35.968H2356.02V38.968H2359.02V35.968ZM2359.02 23.968V20.968H2356.02V23.968H2359.02ZM2410.09 23.968H2413.09V20.968H2410.09V23.968ZM2410.09 35.968V38.968H2413.09V35.968H2410.09ZM2391.47 35.968V32.968H2388.47V35.968H2391.47ZM2391.47 85H2377.74V91H2391.47V85ZM2380.74 88V35.968H2374.74V88H2380.74ZM2377.74 32.968H2359.02V38.968H2377.74V32.968ZM2362.02 35.968V23.968H2356.02V35.968H2362.02ZM2359.02 26.968H2410.09V20.968H2359.02V26.968ZM2407.09 23.968V35.968H2413.09V23.968H2407.09ZM2410.09 32.968H2391.47V38.968H2410.09V32.968ZM2388.47 35.968V88H2394.47V35.968H2388.47ZM2430.35 23.968V20.968H2427.35V23.968H2430.35ZM2443.98 23.968H2446.98V20.968H2443.98V23.968ZM2443.98 46.72H2440.98V49.72H2443.98V46.72ZM2430.35 88H2427.35V91H2430.35V88ZM2443.98 58.72V55.72H2440.98V58.72H2443.98ZM2443.98 76H2440.98V79H2443.98V76ZM2500.91 88V91H2503.91V88H2500.91ZM2487.18 88H2484.18V91H2487.18V88ZM2487.18 23.968V20.968H2484.18V23.968H2487.18ZM2500.91 23.968H2503.91V20.968H2500.91V23.968ZM2430.35 26.968H2443.98V20.968H2430.35V26.968ZM2440.98 23.968V46.72H2446.98V23.968H2440.98ZM2443.98 49.72H2460.3V43.72H2443.98V49.72ZM2460.3 49.72C2466.49 49.72 2471.06 51.8288 2474.08 54.9507C2477.13 58.0968 2478.81 62.4796 2478.81 67.36H2484.81C2484.81 61.1044 2482.64 55.1672 2478.39 50.7773C2474.12 46.3632 2467.94 43.72 2460.3 43.72V49.72ZM2478.81 67.36C2478.81 72.3033 2477.14 76.6808 2474.12 79.8054C2471.12 82.9062 2466.56 85 2460.3 85V91C2467.97 91 2474.16 88.3898 2478.43 83.9786C2482.68 79.5912 2484.81 73.6487 2484.81 67.36H2478.81ZM2460.3 85H2430.35V91H2460.3V85ZM2433.35 88V23.968H2427.35V88H2433.35ZM2458.48 55.72H2443.98V61.72H2458.48V55.72ZM2440.98 58.72V76H2446.98V58.72H2440.98ZM2443.98 79H2458.48V73H2443.98V79ZM2458.48 79C2461.76 79 2464.86 78.0005 2467.19 75.9418C2469.55 73.8481 2470.89 70.8506 2470.89 67.36H2464.89C2464.89 69.2454 2464.21 70.5679 2463.21 71.4502C2462.17 72.3675 2460.57 73 2458.48 73V79ZM2470.89 67.36C2470.89 63.9056 2469.54 60.9176 2467.2 58.8222C2464.88 56.7563 2461.78 55.72 2458.48 55.72V61.72C2460.55 61.72 2462.15 62.3637 2463.2 63.2978C2464.21 64.2024 2464.89 65.5344 2464.89 67.36H2470.89ZM2500.91 85H2487.18V91H2500.91V85ZM2490.18 88V23.968H2484.18V88H2490.18ZM2487.18 26.968H2500.91V20.968H2487.18V26.968ZM2497.91 23.968V88H2503.91V23.968H2497.91Z" fill="#9E9E9E" mask="url(#path-7-outside-4_200_10)"/>
</svg>
