<svg width="2600" height="69" viewBox="0 0 2600 69" fill="none" xmlns="http://www.w3.org/2000/svg">
<g clip-path="url(#clip0)">
<path opacity="0.2" fill-rule="evenodd" clip-rule="evenodd" d="M40 7.52648H19.68L0 60.8865H18.32L20.24 54.6465H39.44L41.36 60.8865H59.68L40 7.52648ZM56.8107 58.8865L38.6059 9.52648H21.0741L2.86932 58.8865H16.8429L18.7629 52.6465H40.9171L42.8372 58.8865H56.8107ZM102.861 32.171C106.397 30.1953 108.797 26.3221 108.797 21.1265C108.797 14.8865 103.997 7.52648 92.9569 7.52648H60.5569V60.8865H94.0769C104.797 60.8865 109.837 53.8465 109.837 46.4065C109.837 40.8896 107.008 36.4015 102.917 34.3859C101.906 33.8879 100.818 33.5408 99.6769 33.3665C100.808 33.1229 101.879 32.7203 102.861 32.171ZM62.5569 58.8865H94.0769C98.9771 58.8865 102.369 57.2911 104.539 55.0465C106.729 52.7802 107.837 49.683 107.837 46.4065C107.837 40.3777 104.029 36.0546 99.3748 35.3435L99.2558 31.4113C103.478 30.5018 106.797 26.8829 106.797 21.1265C106.797 18.5 105.782 15.6137 103.592 13.3898C101.431 11.1954 98.006 9.52648 92.9569 9.52648H62.5569V58.8865ZM37.8261 42.5665H21.8539L29.84 16.5513L37.8261 42.5665ZM35.12 40.5665L29.84 23.3665L24.56 40.5665H35.12ZM74.7169 29.2065V18.9665H89.1969C91.7743 18.9665 94.3969 20.8656 94.3969 24.0065C94.3969 27.1281 91.8818 29.2065 89.1969 29.2065H74.7169ZM74.7169 49.4465V38.6465H89.6769C91.283 38.6465 92.7389 39.1801 93.8073 40.1993C94.8758 41.2184 95.4369 42.612 95.4369 44.0865C95.4369 45.5905 94.8812 46.9898 93.7711 47.9974C92.6784 48.9892 91.2229 49.4465 89.6769 49.4465H74.7169ZM140.658 59.8465C156.182 59.8465 167.858 49.3991 167.858 34.2465C167.858 19.0939 156.182 8.64648 140.658 8.64648C125.134 8.64648 113.458 19.0939 113.458 34.2465C113.458 49.3991 125.134 59.8465 140.658 59.8465ZM140.658 49.6065C131.65 49.6065 125.858 42.642 125.858 34.2465C125.858 25.8509 131.65 18.8865 140.658 18.8865C149.666 18.8865 155.458 25.8509 155.458 34.2465C155.458 42.642 149.666 49.6065 140.658 49.6065ZM218.527 53.8909C222.371 50.2689 224.308 45.1042 224.308 38.8865V9.52648H211.908V38.4065C211.908 41.405 210.918 44.2453 208.822 46.3407C206.719 48.4442 203.693 49.6065 199.988 49.6065C196.25 49.6065 193.204 48.4483 191.088 46.3449C188.979 44.2484 187.988 41.4055 187.988 38.4065V9.52648H175.588V38.9665C175.588 45.1356 177.54 50.2806 181.405 53.896C185.282 57.5238 191.336 59.8465 199.988 59.8465C208.641 59.8465 214.671 57.5239 218.527 53.8909ZM173.588 38.9665C173.588 52.1665 181.988 61.8465 199.988 61.8465C217.988 61.8465 226.308 52.1665 226.308 38.8865V7.52648H209.908V38.4065C209.908 43.5265 206.548 47.6065 199.988 47.6065C193.348 47.6065 189.988 43.5265 189.988 38.4065V7.52648H173.588V38.9665ZM258.516 19.6065H272.756V9.52648H232.036V19.6065H246.356V58.8865H258.516V19.6065ZM260.516 60.8865H244.356V21.6065H230.036V7.52648H274.756V21.6065H260.516V60.8865ZM341.823 53.8909C345.667 50.2689 347.605 45.1042 347.605 38.8865V9.52648H335.205V38.4065C335.205 41.405 334.215 44.2453 332.119 46.3407C330.016 48.4442 326.99 49.6065 323.285 49.6065C319.547 49.6065 316.501 48.4483 314.385 46.3449C312.276 44.2484 311.285 41.4055 311.285 38.4065V9.52648H298.885V38.9665C298.885 45.1356 300.837 50.2806 304.701 53.896C308.579 57.5238 314.633 59.8465 323.285 59.8465C331.937 59.8465 337.968 57.5239 341.823 53.8909ZM296.885 38.9665C296.885 52.1665 305.285 61.8465 323.285 61.8465C341.285 61.8465 349.605 52.1665 349.605 38.8865V7.52648H333.205V38.4065C333.205 43.5265 329.845 47.6065 323.285 47.6065C316.645 47.6065 313.285 43.5265 313.285 38.4065V7.52648H296.885V38.9665ZM392.575 55.4136C396.02 52.6627 397.973 48.6247 397.973 43.2865C397.973 38.9065 396.369 35.9992 394.01 33.9101C391.568 31.748 388.208 30.3711 384.605 29.3856C382.222 28.7335 379.938 28.2975 377.81 27.8913C376.658 27.6714 375.552 27.4603 374.5 27.2283C373.1 26.9196 371.729 26.556 370.679 26.0345C369.695 25.5459 368.293 24.5527 368.293 22.7265C368.293 21.555 368.712 20.2615 369.993 19.3731C371.114 18.5955 372.631 18.3265 374.373 18.3265C379.24 18.3265 384.894 19.8319 389.617 22.8649L395.897 14.5505C390.461 10.6969 383.661 8.72648 376.053 8.72648C369.129 8.72648 364.09 10.764 360.81 13.6729C357.53 16.5815 355.893 20.4558 355.893 24.4065C355.893 29.125 357.532 32.2027 359.893 34.3618C362.332 36.5926 365.686 37.9702 369.285 38.9231C371.73 39.5705 374.089 39.9802 376.276 40.3602C377.362 40.5488 378.406 40.7301 379.398 40.9295C380.798 41.2112 382.178 41.5483 383.237 42.0543C384.242 42.5348 385.653 43.5225 385.653 45.3665C385.653 47.5753 384.045 48.8293 382.605 49.4316C381.16 50.0359 379.382 50.2465 377.733 50.2465C370.941 50.2465 365.136 47.7415 360.893 44.3399L354.815 53.0222C359.968 57.1426 366.913 59.8465 376.933 59.8465C383.806 59.8465 389.071 58.2119 392.575 55.4136ZM352.133 53.3665L360.533 41.3665C361.008 41.8228 361.512 42.2678 362.043 42.6978C365.976 45.8861 371.389 48.2465 377.733 48.2465C380.773 48.2465 383.653 47.4465 383.653 45.3665C383.653 43.6751 380.406 43.11 376.056 42.353C367.239 40.8186 353.893 38.4961 353.893 24.4065C353.893 15.3665 361.413 6.72648 376.053 6.72648C384.773 6.72648 392.613 9.20643 398.693 14.1663C398.693 14.1664 398.693 14.1663 398.693 14.1663L390.053 25.6063C390.027 25.5865 390.001 25.5671 389.975 25.5474C385.346 22.0668 379.385 20.3265 374.373 20.3265C371.173 20.3265 370.293 21.3665 370.293 22.7265C370.293 24.4155 373.626 25.0533 378.058 25.9015C386.852 27.5843 399.973 30.0951 399.973 43.2865C399.973 55.0465 391.253 61.8465 376.933 61.8465C365.573 61.8465 357.813 58.4865 352.133 53.3665ZM89.1969 27.2065C90.8769 27.2065 92.3969 25.9265 92.3969 24.0065C92.3969 22.1665 90.8769 20.9665 89.1969 20.9665H76.7169V27.2065H89.1969ZM89.6769 47.4465C91.9969 47.4465 93.4369 46.0865 93.4369 44.0865C93.4369 42.1665 91.9969 40.6465 89.6769 40.6465H76.7169V47.4465H89.6769ZM169.858 34.2465C169.858 50.6465 157.138 61.8465 140.658 61.8465C124.178 61.8465 111.458 50.6465 111.458 34.2465C111.458 17.8465 124.178 6.64648 140.658 6.64648C157.138 6.64648 169.858 17.8465 169.858 34.2465ZM127.858 34.2465C127.858 41.6865 132.898 47.6065 140.658 47.6065C148.418 47.6065 153.458 41.6865 153.458 34.2465C153.458 26.8065 148.418 20.8865 140.658 20.8865C132.898 20.8865 127.858 26.8065 127.858 34.2465Z" fill="black"/>
<path opacity="0.2" fill-rule="evenodd" clip-rule="evenodd" d="M479.973 7.52648H459.653L439.973 60.8865H458.293L460.213 54.6465H479.413L481.333 60.8865H499.653L479.973 7.52648ZM496.783 58.8865L478.579 9.52648H461.047L442.842 58.8865H456.816L458.736 52.6465H480.89L482.81 58.8865H496.783ZM542.834 32.171C546.369 30.1953 548.77 26.3221 548.77 21.1265C548.77 14.8865 543.97 7.52648 532.93 7.52648H500.53V60.8865H534.05C544.77 60.8865 549.81 53.8465 549.81 46.4065C549.81 40.8896 546.98 36.4015 542.889 34.3859C541.879 33.8879 540.791 33.5408 539.65 33.3665C540.781 33.1229 541.851 32.7203 542.834 32.171ZM502.53 58.8865H534.05C538.95 58.8865 542.342 57.2911 544.511 55.0465C546.702 52.7802 547.81 49.683 547.81 46.4065C547.81 40.3777 544.002 36.0546 539.347 35.3435L539.228 31.4113C543.451 30.5018 546.77 26.8829 546.77 21.1265C546.77 18.5 545.754 15.6137 543.564 13.3898C541.404 11.1954 537.979 9.52648 532.93 9.52648H502.53V58.8865ZM477.799 42.5665H461.827L469.813 16.5513L477.799 42.5665ZM475.093 40.5665L469.813 23.3665L464.533 40.5665H475.093ZM514.69 29.2065V18.9665H529.17C531.747 18.9665 534.37 20.8656 534.37 24.0065C534.37 27.1281 531.854 29.2065 529.17 29.2065H514.69ZM514.69 49.4465V38.6465H529.65C531.256 38.6465 532.712 39.1801 533.78 40.1993C534.848 41.2184 535.41 42.612 535.41 44.0865C535.41 45.5905 534.854 46.9898 533.744 47.9974C532.651 48.9892 531.196 49.4465 529.65 49.4465H514.69ZM580.631 59.8465C596.155 59.8465 607.831 49.3991 607.831 34.2465C607.831 19.0939 596.155 8.64648 580.631 8.64648C565.107 8.64648 553.431 19.0939 553.431 34.2465C553.431 49.3991 565.107 59.8465 580.631 59.8465ZM580.631 49.6065C571.623 49.6065 565.831 42.642 565.831 34.2465C565.831 25.8509 571.623 18.8865 580.631 18.8865C589.639 18.8865 595.431 25.8509 595.431 34.2465C595.431 42.642 589.639 49.6065 580.631 49.6065ZM658.499 53.8909C662.343 50.2689 664.281 45.1042 664.281 38.8865V9.52648H651.881V38.4065C651.881 41.405 650.89 44.2453 648.795 46.3407C646.691 48.4442 643.666 49.6065 639.961 49.6065C636.222 49.6065 633.177 48.4483 631.061 46.3449C628.952 44.2484 627.961 41.4055 627.961 38.4065V9.52648H615.561V38.9665C615.561 45.1356 617.513 50.2806 621.377 53.896C625.254 57.5238 631.308 59.8465 639.961 59.8465C648.613 59.8465 654.644 57.5239 658.499 53.8909ZM613.561 38.9665C613.561 52.1665 621.961 61.8465 639.961 61.8465C657.961 61.8465 666.281 52.1665 666.281 38.8865V7.52648H649.881V38.4065C649.881 43.5265 646.521 47.6065 639.961 47.6065C633.321 47.6065 629.961 43.5265 629.961 38.4065V7.52648H613.561V38.9665ZM698.489 19.6065H712.729V9.52648H672.009V19.6065H686.329V58.8865H698.489V19.6065ZM700.489 60.8865H684.329V21.6065H670.009V7.52648H714.729V21.6065H700.489V60.8865ZM781.796 53.8909C785.64 50.2689 787.578 45.1042 787.578 38.8865V9.52648H775.178V38.4065C775.178 41.405 774.187 44.2453 772.092 46.3407C769.988 48.4442 766.963 49.6065 763.258 49.6065C759.519 49.6065 756.474 48.4483 754.358 46.3449C752.249 44.2484 751.258 41.4055 751.258 38.4065V9.52648H738.858V38.9665C738.858 45.1356 740.81 50.2806 744.674 53.896C748.551 57.5238 754.605 59.8465 763.258 59.8465C771.91 59.8465 777.94 57.5239 781.796 53.8909ZM736.858 38.9665C736.858 52.1665 745.258 61.8465 763.258 61.8465C781.258 61.8465 789.578 52.1665 789.578 38.8865V7.52648H773.178V38.4065C773.178 43.5265 769.818 47.6065 763.258 47.6065C756.618 47.6065 753.258 43.5265 753.258 38.4065V7.52648H736.858V38.9665ZM832.548 55.4136C835.993 52.6627 837.946 48.6247 837.946 43.2865C837.946 38.9065 836.342 35.9992 833.982 33.9101C831.541 31.748 828.18 30.3711 824.578 29.3856C822.195 28.7335 819.911 28.2975 817.782 27.8913C816.63 27.6714 815.524 27.4603 814.473 27.2283C813.073 26.9196 811.702 26.556 810.652 26.0345C809.668 25.5459 808.266 24.5527 808.266 22.7265C808.266 21.555 808.685 20.2615 809.966 19.3731C811.087 18.5955 812.604 18.3265 814.346 18.3265C819.213 18.3265 824.866 19.8319 829.59 22.8649L835.87 14.5505C830.434 10.6969 823.633 8.72648 816.026 8.72648C809.102 8.72648 804.063 10.764 800.783 13.6729C797.503 16.5815 795.866 20.4558 795.866 24.4065C795.866 29.125 797.504 32.2027 799.865 34.3618C802.305 36.5926 805.659 37.9702 809.258 38.9231C811.703 39.5705 814.061 39.9802 816.249 40.3602C817.335 40.5488 818.379 40.7301 819.37 40.9295C820.771 41.2112 822.151 41.5483 823.209 42.0543C824.215 42.5348 825.626 43.5225 825.626 45.3665C825.626 47.5753 824.018 48.8293 822.577 49.4316C821.133 50.0359 819.354 50.2465 817.706 50.2465C810.914 50.2465 805.109 47.7415 800.866 44.3399L794.788 53.0222C799.941 57.1426 806.886 59.8465 816.906 59.8465C823.778 59.8465 829.043 58.2119 832.548 55.4136ZM792.106 53.3665L800.506 41.3665C800.981 41.8228 801.485 42.2678 802.015 42.6978C805.949 45.8861 811.361 48.2465 817.706 48.2465C820.746 48.2465 823.626 47.4465 823.626 45.3665C823.626 43.6751 820.378 43.11 816.029 42.353C807.211 40.8186 793.866 38.4961 793.866 24.4065C793.866 15.3665 801.386 6.72648 816.026 6.72648C824.746 6.72648 832.586 9.20643 838.666 14.1663C838.666 14.1664 838.666 14.1663 838.666 14.1663L830.026 25.6063C830 25.5865 829.974 25.5671 829.948 25.5474C825.319 22.0668 819.358 20.3265 814.346 20.3265C811.146 20.3265 810.266 21.3665 810.266 22.7265C810.266 24.4155 813.599 25.0533 818.031 25.9015C826.825 27.5843 839.946 30.0951 839.946 43.2865C839.946 55.0465 831.226 61.8465 816.906 61.8465C805.546 61.8465 797.786 58.4865 792.106 53.3665ZM529.17 27.2065C530.85 27.2065 532.37 25.9265 532.37 24.0065C532.37 22.1665 530.85 20.9665 529.17 20.9665H516.69V27.2065H529.17ZM529.65 47.4465C531.97 47.4465 533.41 46.0865 533.41 44.0865C533.41 42.1665 531.97 40.6465 529.65 40.6465H516.69V47.4465H529.65ZM609.831 34.2465C609.831 50.6465 597.111 61.8465 580.631 61.8465C564.151 61.8465 551.431 50.6465 551.431 34.2465C551.431 17.8465 564.151 6.64648 580.631 6.64648C597.111 6.64648 609.831 17.8465 609.831 34.2465ZM567.831 34.2465C567.831 41.6865 572.871 47.6065 580.631 47.6065C588.391 47.6065 593.431 41.6865 593.431 34.2465C593.431 26.8065 588.391 20.8865 580.631 20.8865C572.871 20.8865 567.831 26.8065 567.831 34.2465Z" fill="black"/>
<path opacity="0.2" fill-rule="evenodd" clip-rule="evenodd" d="M919.945 7.52648H899.625L879.945 60.8865H898.265L900.185 54.6465H919.385L921.305 60.8865H939.625L919.945 7.52648ZM936.756 58.8865L918.551 9.52648H901.019L882.815 58.8865H896.788L898.708 52.6465H920.862L922.782 58.8865H936.756ZM982.807 32.171C986.342 30.1953 988.742 26.3221 988.742 21.1265C988.742 14.8865 983.942 7.52648 972.902 7.52648H940.502V60.8865H974.022C984.742 60.8865 989.782 53.8465 989.782 46.4065C989.782 40.8896 986.953 36.4015 982.862 34.3859C981.851 33.8879 980.763 33.5408 979.622 33.3665C980.753 33.1229 981.824 32.7203 982.807 32.171ZM942.502 58.8865H974.022C978.922 58.8865 982.315 57.2911 984.484 55.0465C986.675 52.7802 987.782 49.683 987.782 46.4065C987.782 40.3777 983.974 36.0546 979.32 35.3435L979.201 31.4113C983.424 30.5018 986.742 26.8829 986.742 21.1265C986.742 18.5 985.727 15.6137 983.537 13.3898C981.376 11.1954 977.951 9.52648 972.902 9.52648H942.502V58.8865ZM917.771 42.5665H901.799L909.785 16.5513L917.771 42.5665ZM915.065 40.5665L909.785 23.3665L904.505 40.5665H915.065ZM954.662 29.2065V18.9665H969.142C971.72 18.9665 974.342 20.8656 974.342 24.0065C974.342 27.1281 971.827 29.2065 969.142 29.2065H954.662ZM954.662 49.4465V38.6465H969.622C971.228 38.6465 972.684 39.1801 973.753 40.1993C974.821 41.2184 975.382 42.612 975.382 44.0865C975.382 45.5905 974.827 46.9898 973.716 47.9974C972.624 48.9892 971.168 49.4465 969.622 49.4465H954.662ZM1020.6 59.8465C1036.13 59.8465 1047.8 49.3991 1047.8 34.2465C1047.8 19.0939 1036.13 8.64648 1020.6 8.64648C1005.08 8.64648 993.403 19.0939 993.403 34.2465C993.403 49.3991 1005.08 59.8465 1020.6 59.8465ZM1020.6 49.6065C1011.6 49.6065 1005.8 42.642 1005.8 34.2465C1005.8 25.8509 1011.6 18.8865 1020.6 18.8865C1029.61 18.8865 1035.4 25.8509 1035.4 34.2465C1035.4 42.642 1029.61 49.6065 1020.6 49.6065ZM1098.47 53.8909C1102.32 50.2689 1104.25 45.1042 1104.25 38.8865V9.52648H1091.85V38.4065C1091.85 41.405 1090.86 44.2453 1088.77 46.3407C1086.66 48.4442 1083.64 49.6065 1079.93 49.6065C1076.19 49.6065 1073.15 48.4483 1071.03 46.3449C1068.92 44.2484 1067.93 41.4055 1067.93 38.4065V9.52648H1055.53V38.9665C1055.53 45.1356 1057.49 50.2806 1061.35 53.896C1065.23 57.5238 1071.28 59.8465 1079.93 59.8465C1088.59 59.8465 1094.62 57.5239 1098.47 53.8909ZM1053.53 38.9665C1053.53 52.1665 1061.93 61.8465 1079.93 61.8465C1097.93 61.8465 1106.25 52.1665 1106.25 38.8865V7.52648H1089.85V38.4065C1089.85 43.5265 1086.49 47.6065 1079.93 47.6065C1073.29 47.6065 1069.93 43.5265 1069.93 38.4065V7.52648H1053.53V38.9665ZM1138.46 19.6065H1152.7V9.52648H1111.98V19.6065H1126.3V58.8865H1138.46V19.6065ZM1140.46 60.8865H1124.3V21.6065H1109.98V7.52648H1154.7V21.6065H1140.46V60.8865ZM1221.77 53.8909C1225.61 50.2689 1227.55 45.1042 1227.55 38.8865V9.52648H1215.15V38.4065C1215.15 41.405 1214.16 44.2453 1212.06 46.3407C1209.96 48.4442 1206.94 49.6065 1203.23 49.6065C1199.49 49.6065 1196.45 48.4483 1194.33 46.3449C1192.22 44.2484 1191.23 41.4055 1191.23 38.4065V9.52648H1178.83V38.9665C1178.83 45.1356 1180.78 50.2806 1184.65 53.896C1188.52 57.5238 1194.58 59.8465 1203.23 59.8465C1211.88 59.8465 1217.91 57.5239 1221.77 53.8909ZM1176.83 38.9665C1176.83 52.1665 1185.23 61.8465 1203.23 61.8465C1221.23 61.8465 1229.55 52.1665 1229.55 38.8865V7.52648H1213.15V38.4065C1213.15 43.5265 1209.79 47.6065 1203.23 47.6065C1196.59 47.6065 1193.23 43.5265 1193.23 38.4065V7.52648H1176.83V38.9665ZM1272.52 55.4136C1275.97 52.6627 1277.92 48.6247 1277.92 43.2865C1277.92 38.9065 1276.31 35.9992 1273.96 33.9101C1271.51 31.748 1268.15 30.3711 1264.55 29.3856C1262.17 28.7335 1259.88 28.2975 1257.75 27.8913C1256.6 27.6714 1255.5 27.4603 1254.45 27.2283C1253.05 26.9196 1251.67 26.556 1250.62 26.0345C1249.64 25.5459 1248.24 24.5527 1248.24 22.7265C1248.24 21.555 1248.66 20.2615 1249.94 19.3731C1251.06 18.5955 1252.58 18.3265 1254.32 18.3265C1259.19 18.3265 1264.84 19.8319 1269.56 22.8649L1275.84 14.5505C1270.41 10.6969 1263.61 8.72648 1256 8.72648C1249.07 8.72648 1244.04 10.764 1240.76 13.6729C1237.48 16.5815 1235.84 20.4558 1235.84 24.4065C1235.84 29.125 1237.48 32.2027 1239.84 34.3618C1242.28 36.5926 1245.63 37.9702 1249.23 38.9231C1251.68 39.5705 1254.03 39.9802 1256.22 40.3602C1257.31 40.5488 1258.35 40.7301 1259.34 40.9295C1260.74 41.2112 1262.12 41.5483 1263.18 42.0543C1264.19 42.5348 1265.6 43.5225 1265.6 45.3665C1265.6 47.5753 1263.99 48.8293 1262.55 49.4316C1261.11 50.0359 1259.33 50.2465 1257.68 50.2465C1250.89 50.2465 1245.08 47.7415 1240.84 44.3399L1234.76 53.0222C1239.91 57.1426 1246.86 59.8465 1256.88 59.8465C1263.75 59.8465 1269.02 58.2119 1272.52 55.4136ZM1232.08 53.3665L1240.48 41.3665C1240.95 41.8228 1241.46 42.2678 1241.99 42.6978C1245.92 45.8861 1251.33 48.2465 1257.68 48.2465C1260.72 48.2465 1263.6 47.4465 1263.6 45.3665C1263.6 43.6751 1260.35 43.11 1256 42.353C1247.18 40.8186 1233.84 38.4961 1233.84 24.4065C1233.84 15.3665 1241.36 6.72648 1256 6.72648C1264.72 6.72648 1272.56 9.20643 1278.64 14.1663C1278.64 14.1664 1278.64 14.1663 1278.64 14.1663L1270 25.6063C1269.97 25.5865 1269.95 25.5671 1269.92 25.5474C1265.29 22.0668 1259.33 20.3265 1254.32 20.3265C1251.12 20.3265 1250.24 21.3665 1250.24 22.7265C1250.24 24.4155 1253.57 25.0533 1258 25.9015C1266.8 27.5843 1279.92 30.0951 1279.92 43.2865C1279.92 55.0465 1271.2 61.8465 1256.88 61.8465C1245.52 61.8465 1237.76 58.4865 1232.08 53.3665ZM969.142 27.2065C970.822 27.2065 972.342 25.9265 972.342 24.0065C972.342 22.1665 970.822 20.9665 969.142 20.9665H956.662V27.2065H969.142ZM969.622 47.4465C971.942 47.4465 973.382 46.0865 973.382 44.0865C973.382 42.1665 971.942 40.6465 969.622 40.6465H956.662V47.4465H969.622ZM1049.8 34.2465C1049.8 50.6465 1037.08 61.8465 1020.6 61.8465C1004.12 61.8465 991.403 50.6465 991.403 34.2465C991.403 17.8465 1004.12 6.64648 1020.6 6.64648C1037.08 6.64648 1049.8 17.8465 1049.8 34.2465ZM1007.8 34.2465C1007.8 41.6865 1012.84 47.6065 1020.6 47.6065C1028.36 47.6065 1033.4 41.6865 1033.4 34.2465C1033.4 26.8065 1028.36 20.8865 1020.6 20.8865C1012.84 20.8865 1007.8 26.8065 1007.8 34.2465Z" fill="black"/>
<path opacity="0.2" fill-rule="evenodd" clip-rule="evenodd" d="M1359.92 7.52648H1339.6L1319.92 60.8865H1338.24L1340.16 54.6465H1359.36L1361.28 60.8865H1379.6L1359.92 7.52648ZM1376.73 58.8865L1358.52 9.52648H1340.99L1322.79 58.8865H1336.76L1338.68 52.6465H1360.84L1362.76 58.8865H1376.73ZM1422.78 32.171C1426.31 30.1953 1428.71 26.3221 1428.71 21.1265C1428.71 14.8865 1423.91 7.52648 1412.87 7.52648H1380.47V60.8865H1413.99C1424.71 60.8865 1429.75 53.8465 1429.75 46.4065C1429.75 40.8896 1426.93 36.4015 1422.83 34.3859C1421.82 33.8879 1420.74 33.5408 1419.59 33.3665C1420.73 33.1229 1421.8 32.7203 1422.78 32.171ZM1382.47 58.8865H1413.99C1418.9 58.8865 1422.29 57.2911 1424.46 55.0465C1426.65 52.7802 1427.75 49.683 1427.75 46.4065C1427.75 40.3777 1423.95 36.0546 1419.29 35.3435L1419.17 31.4113C1423.4 30.5018 1426.71 26.8829 1426.71 21.1265C1426.71 18.5 1425.7 15.6137 1423.51 13.3898C1421.35 11.1954 1417.92 9.52648 1412.87 9.52648H1382.47V58.8865ZM1357.74 42.5665H1341.77L1349.76 16.5513L1357.74 42.5665ZM1355.04 40.5665L1349.76 23.3665L1344.48 40.5665H1355.04ZM1394.63 29.2065V18.9665H1409.11C1411.69 18.9665 1414.31 20.8656 1414.31 24.0065C1414.31 27.1281 1411.8 29.2065 1409.11 29.2065H1394.63ZM1394.63 49.4465V38.6465H1409.59C1411.2 38.6465 1412.66 39.1801 1413.73 40.1993C1414.79 41.2184 1415.35 42.612 1415.35 44.0865C1415.35 45.5905 1414.8 46.9898 1413.69 47.9974C1412.6 48.9892 1411.14 49.4465 1409.59 49.4465H1394.63ZM1460.58 59.8465C1476.1 59.8465 1487.78 49.3991 1487.78 34.2465C1487.78 19.0939 1476.1 8.64648 1460.58 8.64648C1445.05 8.64648 1433.38 19.0939 1433.38 34.2465C1433.38 49.3991 1445.05 59.8465 1460.58 59.8465ZM1460.58 49.6065C1451.57 49.6065 1445.78 42.642 1445.78 34.2465C1445.78 25.8509 1451.57 18.8865 1460.58 18.8865C1469.58 18.8865 1475.38 25.8509 1475.38 34.2465C1475.38 42.642 1469.58 49.6065 1460.58 49.6065ZM1538.44 53.8909C1542.29 50.2689 1544.23 45.1042 1544.23 38.8865V9.52648H1531.83V38.4065C1531.83 41.405 1530.84 44.2453 1528.74 46.3407C1526.64 48.4442 1523.61 49.6065 1519.91 49.6065C1516.17 49.6065 1513.12 48.4483 1511.01 46.3449C1508.9 44.2484 1507.91 41.4055 1507.91 38.4065V9.52648H1495.51V38.9665C1495.51 45.1356 1497.46 50.2806 1501.32 53.896C1505.2 57.5238 1511.25 59.8465 1519.91 59.8465C1528.56 59.8465 1534.59 57.5239 1538.44 53.8909ZM1493.51 38.9665C1493.51 52.1665 1501.91 61.8465 1519.91 61.8465C1537.91 61.8465 1546.23 52.1665 1546.23 38.8865V7.52648H1529.83V38.4065C1529.83 43.5265 1526.47 47.6065 1519.91 47.6065C1513.27 47.6065 1509.91 43.5265 1509.91 38.4065V7.52648H1493.51V38.9665ZM1578.43 19.6065H1592.67V9.52648H1551.95V19.6065H1566.27V58.8865H1578.43V19.6065ZM1580.43 60.8865H1564.27V21.6065H1549.95V7.52648H1594.67V21.6065H1580.43V60.8865ZM1661.74 53.8909C1665.59 50.2689 1667.52 45.1042 1667.52 38.8865V9.52648H1655.12V38.4065C1655.12 41.405 1654.13 44.2453 1652.04 46.3407C1649.93 48.4442 1646.91 49.6065 1643.2 49.6065C1639.46 49.6065 1636.42 48.4483 1634.3 46.3449C1632.19 44.2484 1631.2 41.4055 1631.2 38.4065V9.52648H1618.8V38.9665C1618.8 45.1356 1620.76 50.2806 1624.62 53.896C1628.5 57.5238 1634.55 59.8465 1643.2 59.8465C1651.86 59.8465 1657.89 57.5239 1661.74 53.8909ZM1616.8 38.9665C1616.8 52.1665 1625.2 61.8465 1643.2 61.8465C1661.2 61.8465 1669.52 52.1665 1669.52 38.8865V7.52648H1653.12V38.4065C1653.12 43.5265 1649.76 47.6065 1643.2 47.6065C1636.56 47.6065 1633.2 43.5265 1633.2 38.4065V7.52648H1616.8V38.9665ZM1712.49 55.4136C1715.94 52.6627 1717.89 48.6247 1717.89 43.2865C1717.89 38.9065 1716.29 35.9992 1713.93 33.9101C1711.49 31.748 1708.13 30.3711 1704.52 29.3856C1702.14 28.7335 1699.86 28.2975 1697.73 27.8913C1696.58 27.6714 1695.47 27.4603 1694.42 27.2283C1693.02 26.9196 1691.65 26.556 1690.6 26.0345C1689.61 25.5459 1688.21 24.5527 1688.21 22.7265C1688.21 21.555 1688.63 20.2615 1689.91 19.3731C1691.03 18.5955 1692.55 18.3265 1694.29 18.3265C1699.16 18.3265 1704.81 19.8319 1709.54 22.8649L1715.81 14.5505C1710.38 10.6969 1703.58 8.72648 1695.97 8.72648C1689.05 8.72648 1684.01 10.764 1680.73 13.6729C1677.45 16.5815 1675.81 20.4558 1675.81 24.4065C1675.81 29.125 1677.45 32.2027 1679.81 34.3618C1682.25 36.5926 1685.6 37.9702 1689.2 38.9231C1691.65 39.5705 1694.01 39.9802 1696.19 40.3602C1697.28 40.5488 1698.32 40.7301 1699.32 40.9295C1700.72 41.2112 1702.1 41.5483 1703.15 42.0543C1704.16 42.5348 1705.57 43.5225 1705.57 45.3665C1705.57 47.5753 1703.96 48.8293 1702.52 49.4316C1701.08 50.0359 1699.3 50.2465 1697.65 50.2465C1690.86 50.2465 1685.05 47.7415 1680.81 44.3399L1674.73 53.0222C1679.89 57.1426 1686.83 59.8465 1696.85 59.8465C1703.72 59.8465 1708.99 58.2119 1712.49 55.4136ZM1672.05 53.3665L1680.45 41.3665C1680.93 41.8228 1681.43 42.2678 1681.96 42.6978C1685.89 45.8861 1691.31 48.2465 1697.65 48.2465C1700.69 48.2465 1703.57 47.4465 1703.57 45.3665C1703.57 43.6751 1700.32 43.11 1695.97 42.353C1687.16 40.8186 1673.81 38.4961 1673.81 24.4065C1673.81 15.3665 1681.33 6.72648 1695.97 6.72648C1704.69 6.72648 1712.53 9.20643 1718.61 14.1663C1718.61 14.1664 1718.61 14.1663 1718.61 14.1663L1709.97 25.6063C1709.95 25.5865 1709.92 25.5671 1709.89 25.5474C1705.26 22.0668 1699.3 20.3265 1694.29 20.3265C1691.09 20.3265 1690.21 21.3665 1690.21 22.7265C1690.21 24.4155 1693.54 25.0533 1697.98 25.9015C1706.77 27.5843 1719.89 30.0951 1719.89 43.2865C1719.89 55.0465 1711.17 61.8465 1696.85 61.8465C1685.49 61.8465 1677.73 58.4865 1672.05 53.3665ZM1409.11 27.2065C1410.79 27.2065 1412.31 25.9265 1412.31 24.0065C1412.31 22.1665 1410.79 20.9665 1409.11 20.9665H1396.63V27.2065H1409.11ZM1409.59 47.4465C1411.91 47.4465 1413.35 46.0865 1413.35 44.0865C1413.35 42.1665 1411.91 40.6465 1409.59 40.6465H1396.63V47.4465H1409.59ZM1489.78 34.2465C1489.78 50.6465 1477.06 61.8465 1460.58 61.8465C1444.1 61.8465 1431.38 50.6465 1431.38 34.2465C1431.38 17.8465 1444.1 6.64648 1460.58 6.64648C1477.06 6.64648 1489.78 17.8465 1489.78 34.2465ZM1447.78 34.2465C1447.78 41.6865 1452.82 47.6065 1460.58 47.6065C1468.34 47.6065 1473.38 41.6865 1473.38 34.2465C1473.38 26.8065 1468.34 20.8865 1460.58 20.8865C1452.82 20.8865 1447.78 26.8065 1447.78 34.2465Z" fill="black"/>
<path opacity="0.2" fill-rule="evenodd" clip-rule="evenodd" d="M1799.89 7.52648H1779.57L1759.89 60.8865H1778.21L1780.13 54.6465H1799.33L1801.25 60.8865H1819.57L1799.89 7.52648ZM1816.7 58.8865L1798.5 9.52648H1780.96L1762.76 58.8865H1776.73L1778.65 52.6465H1800.81L1802.73 58.8865H1816.7ZM1862.75 32.171C1866.29 30.1953 1868.69 26.3221 1868.69 21.1265C1868.69 14.8865 1863.89 7.52648 1852.85 7.52648H1820.45V60.8865H1853.97C1864.69 60.8865 1869.73 53.8465 1869.73 46.4065C1869.73 40.8896 1866.9 36.4015 1862.81 34.3859C1861.8 33.8879 1860.71 33.5408 1859.57 33.3665C1860.7 33.1229 1861.77 32.7203 1862.75 32.171ZM1822.45 58.8865H1853.97C1858.87 58.8865 1862.26 57.2911 1864.43 55.0465C1866.62 52.7802 1867.73 49.683 1867.73 46.4065C1867.73 40.3777 1863.92 36.0546 1859.27 35.3435L1859.15 31.4113C1863.37 30.5018 1866.69 26.8829 1866.69 21.1265C1866.69 18.5 1865.67 15.6137 1863.48 13.3898C1861.32 11.1954 1857.9 9.52648 1852.85 9.52648H1822.45V58.8865ZM1797.72 42.5665H1781.74L1789.73 16.5513L1797.72 42.5665ZM1795.01 40.5665L1789.73 23.3665L1784.45 40.5665H1795.01ZM1834.61 29.2065V18.9665H1849.09C1851.66 18.9665 1854.29 20.8656 1854.29 24.0065C1854.29 27.1281 1851.77 29.2065 1849.09 29.2065H1834.61ZM1834.61 49.4465V38.6465H1849.57C1851.17 38.6465 1852.63 39.1801 1853.7 40.1993C1854.77 41.2184 1855.33 42.612 1855.33 44.0865C1855.33 45.5905 1854.77 46.9898 1853.66 47.9974C1852.57 48.9892 1851.11 49.4465 1849.57 49.4465H1834.61ZM1900.55 59.8465C1916.07 59.8465 1927.75 49.3991 1927.75 34.2465C1927.75 19.0939 1916.07 8.64648 1900.55 8.64648C1885.02 8.64648 1873.35 19.0939 1873.35 34.2465C1873.35 49.3991 1885.02 59.8465 1900.55 59.8465ZM1900.55 49.6065C1891.54 49.6065 1885.75 42.642 1885.75 34.2465C1885.75 25.8509 1891.54 18.8865 1900.55 18.8865C1909.56 18.8865 1915.35 25.8509 1915.35 34.2465C1915.35 42.642 1909.56 49.6065 1900.55 49.6065ZM1978.42 53.8909C1982.26 50.2689 1984.2 45.1042 1984.2 38.8865V9.52648H1971.8V38.4065C1971.8 41.405 1970.81 44.2453 1968.71 46.3407C1966.61 48.4442 1963.58 49.6065 1959.88 49.6065C1956.14 49.6065 1953.09 48.4483 1950.98 46.3449C1948.87 44.2484 1947.88 41.4055 1947.88 38.4065V9.52648H1935.48V38.9665C1935.48 45.1356 1937.43 50.2806 1941.3 53.896C1945.17 57.5238 1951.23 59.8465 1959.88 59.8465C1968.53 59.8465 1974.56 57.5239 1978.42 53.8909ZM1933.48 38.9665C1933.48 52.1665 1941.88 61.8465 1959.88 61.8465C1977.88 61.8465 1986.2 52.1665 1986.2 38.8865V7.52648H1969.8V38.4065C1969.8 43.5265 1966.44 47.6065 1959.88 47.6065C1953.24 47.6065 1949.88 43.5265 1949.88 38.4065V7.52648H1933.48V38.9665ZM2018.41 19.6065H2032.65V9.52648H1991.93V19.6065H2006.25V58.8865H2018.41V19.6065ZM2020.41 60.8865H2004.25V21.6065H1989.93V7.52648H2034.65V21.6065H2020.41V60.8865ZM2101.71 53.8909C2105.56 50.2689 2107.5 45.1042 2107.5 38.8865V9.52648H2095.1V38.4065C2095.1 41.405 2094.11 44.2453 2092.01 46.3407C2089.91 48.4442 2086.88 49.6065 2083.18 49.6065C2079.44 49.6065 2076.39 48.4483 2074.28 46.3449C2072.17 44.2484 2071.18 41.4055 2071.18 38.4065V9.52648H2058.78V38.9665C2058.78 45.1356 2060.73 50.2806 2064.59 53.896C2068.47 57.5238 2074.52 59.8465 2083.18 59.8465C2091.83 59.8465 2097.86 57.5239 2101.71 53.8909ZM2056.78 38.9665C2056.78 52.1665 2065.18 61.8465 2083.18 61.8465C2101.18 61.8465 2109.5 52.1665 2109.5 38.8865V7.52648H2093.1V38.4065C2093.1 43.5265 2089.74 47.6065 2083.18 47.6065C2076.54 47.6065 2073.18 43.5265 2073.18 38.4065V7.52648H2056.78V38.9665ZM2152.47 55.4136C2155.91 52.6627 2157.86 48.6247 2157.86 43.2865C2157.86 38.9065 2156.26 35.9992 2153.9 33.9101C2151.46 31.748 2148.1 30.3711 2144.5 29.3856C2142.11 28.7335 2139.83 28.2975 2137.7 27.8913C2136.55 27.6714 2135.44 27.4603 2134.39 27.2283C2132.99 26.9196 2131.62 26.556 2130.57 26.0345C2129.59 25.5459 2128.18 24.5527 2128.18 22.7265C2128.18 21.555 2128.6 20.2615 2129.88 19.3731C2131.01 18.5955 2132.52 18.3265 2134.26 18.3265C2139.13 18.3265 2144.78 19.8319 2149.51 22.8649L2155.79 14.5505C2150.35 10.6969 2143.55 8.72648 2135.94 8.72648C2129.02 8.72648 2123.98 10.764 2120.7 13.6729C2117.42 16.5815 2115.78 20.4558 2115.78 24.4065C2115.78 29.125 2117.42 32.2027 2119.78 34.3618C2122.22 36.5926 2125.58 37.9702 2129.18 38.9231C2131.62 39.5705 2133.98 39.9802 2136.17 40.3602C2137.25 40.5488 2138.3 40.7301 2139.29 40.9295C2140.69 41.2112 2142.07 41.5483 2143.13 42.0543C2144.13 42.5348 2145.54 43.5225 2145.54 45.3665C2145.54 47.5753 2143.94 48.8293 2142.5 49.4316C2141.05 50.0359 2139.27 50.2465 2137.62 50.2465C2130.83 50.2465 2125.03 47.7415 2120.78 44.3399L2114.71 53.0222C2119.86 57.1426 2126.8 59.8465 2136.82 59.8465C2143.7 59.8465 2148.96 58.2119 2152.47 55.4136ZM2112.02 53.3665L2120.42 41.3665C2120.9 41.8228 2121.4 42.2678 2121.93 42.6978C2125.87 45.8861 2131.28 48.2465 2137.62 48.2465C2140.66 48.2465 2143.54 47.4465 2143.54 45.3665C2143.54 43.6751 2140.3 43.11 2135.95 42.353C2127.13 40.8186 2113.78 38.4961 2113.78 24.4065C2113.78 15.3665 2121.3 6.72648 2135.94 6.72648C2144.66 6.72648 2152.5 9.20643 2158.58 14.1663C2158.58 14.1664 2158.58 14.1663 2158.58 14.1663L2149.94 25.6063C2149.92 25.5865 2149.89 25.5671 2149.87 25.5474C2145.24 22.0668 2139.28 20.3265 2134.26 20.3265C2131.06 20.3265 2130.18 21.3665 2130.18 22.7265C2130.18 24.4155 2133.52 25.0533 2137.95 25.9015C2146.74 27.5843 2159.86 30.0951 2159.86 43.2865C2159.86 55.0465 2151.14 61.8465 2136.82 61.8465C2125.46 61.8465 2117.7 58.4865 2112.02 53.3665ZM1849.09 27.2065C1850.77 27.2065 1852.29 25.9265 1852.29 24.0065C1852.29 22.1665 1850.77 20.9665 1849.09 20.9665H1836.61V27.2065H1849.09ZM1849.57 47.4465C1851.89 47.4465 1853.33 46.0865 1853.33 44.0865C1853.33 42.1665 1851.89 40.6465 1849.57 40.6465H1836.61V47.4465H1849.57ZM1929.75 34.2465C1929.75 50.6465 1917.03 61.8465 1900.55 61.8465C1884.07 61.8465 1871.35 50.6465 1871.35 34.2465C1871.35 17.8465 1884.07 6.64648 1900.55 6.64648C1917.03 6.64648 1929.75 17.8465 1929.75 34.2465ZM1887.75 34.2465C1887.75 41.6865 1892.79 47.6065 1900.55 47.6065C1908.31 47.6065 1913.35 41.6865 1913.35 34.2465C1913.35 26.8065 1908.31 20.8865 1900.55 20.8865C1892.79 20.8865 1887.75 26.8065 1887.75 34.2465Z" fill="black"/>
<path opacity="0.2" fill-rule="evenodd" clip-rule="evenodd" d="M2239.87 7.52648H2219.55L2199.87 60.8865H2218.19L2220.11 54.6465H2239.31L2241.23 60.8865H2259.55L2239.87 7.52648ZM2256.68 58.8865L2238.47 9.52648H2220.94L2202.74 58.8865H2216.71L2218.63 52.6465H2240.78L2242.7 58.8865H2256.68ZM2302.73 32.171C2306.26 30.1953 2308.66 26.3221 2308.66 21.1265C2308.66 14.8865 2303.86 7.52648 2292.82 7.52648H2260.42V60.8865H2293.94C2304.66 60.8865 2309.7 53.8465 2309.7 46.4065C2309.7 40.8896 2306.87 36.4015 2302.78 34.3859C2301.77 33.8879 2300.69 33.5408 2299.54 33.3665C2300.68 33.1229 2301.75 32.7203 2302.73 32.171ZM2262.42 58.8865H2293.94C2298.84 58.8865 2302.24 57.2911 2304.41 55.0465C2306.6 52.7802 2307.7 49.683 2307.7 46.4065C2307.7 40.3777 2303.9 36.0546 2299.24 35.3435L2299.12 31.4113C2303.35 30.5018 2306.66 26.8829 2306.66 21.1265C2306.66 18.5 2305.65 15.6137 2303.46 13.3898C2301.3 11.1954 2297.87 9.52648 2292.82 9.52648H2262.42V58.8865ZM2237.69 42.5665H2221.72L2229.71 16.5513L2237.69 42.5665ZM2234.99 40.5665L2229.71 23.3665L2224.43 40.5665H2234.99ZM2274.58 29.2065V18.9665H2289.06C2291.64 18.9665 2294.26 20.8656 2294.26 24.0065C2294.26 27.1281 2291.75 29.2065 2289.06 29.2065H2274.58ZM2274.58 49.4465V38.6465H2289.54C2291.15 38.6465 2292.61 39.1801 2293.67 40.1993C2294.74 41.2184 2295.3 42.612 2295.3 44.0865C2295.3 45.5905 2294.75 46.9898 2293.64 47.9974C2292.55 48.9892 2291.09 49.4465 2289.54 49.4465H2274.58ZM2340.53 59.8465C2356.05 59.8465 2367.73 49.3991 2367.73 34.2465C2367.73 19.0939 2356.05 8.64648 2340.53 8.64648C2325 8.64648 2313.33 19.0939 2313.33 34.2465C2313.33 49.3991 2325 59.8465 2340.53 59.8465ZM2340.53 49.6065C2331.52 49.6065 2325.73 42.642 2325.73 34.2465C2325.73 25.8509 2331.52 18.8865 2340.53 18.8865C2349.53 18.8865 2355.33 25.8509 2355.33 34.2465C2355.33 42.642 2349.53 49.6065 2340.53 49.6065ZM2418.39 53.8909C2422.24 50.2689 2424.18 45.1042 2424.18 38.8865V9.52648H2411.78V38.4065C2411.78 41.405 2410.78 44.2453 2408.69 46.3407C2406.59 48.4442 2403.56 49.6065 2399.86 49.6065C2396.12 49.6065 2393.07 48.4483 2390.96 46.3449C2388.85 44.2484 2387.86 41.4055 2387.86 38.4065V9.52648H2375.46V38.9665C2375.46 45.1356 2377.41 50.2806 2381.27 53.896C2385.15 57.5238 2391.2 59.8465 2399.86 59.8465C2408.51 59.8465 2414.54 57.5239 2418.39 53.8909ZM2373.46 38.9665C2373.46 52.1665 2381.86 61.8465 2399.86 61.8465C2417.86 61.8465 2426.18 52.1665 2426.18 38.8865V7.52648H2409.78V38.4065C2409.78 43.5265 2406.42 47.6065 2399.86 47.6065C2393.22 47.6065 2389.86 43.5265 2389.86 38.4065V7.52648H2373.46V38.9665ZM2458.38 19.6065H2472.62V9.52648H2431.9V19.6065H2446.22V58.8865H2458.38V19.6065ZM2460.38 60.8865H2444.22V21.6065H2429.9V7.52648H2474.62V21.6065H2460.38V60.8865ZM2541.69 53.8909C2545.53 50.2689 2547.47 45.1042 2547.47 38.8865V9.52648H2535.07V38.4065C2535.07 41.405 2534.08 44.2453 2531.99 46.3407C2529.88 48.4442 2526.86 49.6065 2523.15 49.6065C2519.41 49.6065 2516.37 48.4483 2514.25 46.3449C2512.14 44.2484 2511.15 41.4055 2511.15 38.4065V9.52648H2498.75V38.9665C2498.75 45.1356 2500.7 50.2806 2504.57 53.896C2508.45 57.5238 2514.5 59.8465 2523.15 59.8465C2531.8 59.8465 2537.83 57.5239 2541.69 53.8909ZM2496.75 38.9665C2496.75 52.1665 2505.15 61.8465 2523.15 61.8465C2541.15 61.8465 2549.47 52.1665 2549.47 38.8865V7.52648H2533.07V38.4065C2533.07 43.5265 2529.71 47.6065 2523.15 47.6065C2516.51 47.6065 2513.15 43.5265 2513.15 38.4065V7.52648H2496.75V38.9665ZM2592.44 55.4136C2595.89 52.6627 2597.84 48.6247 2597.84 43.2865C2597.84 38.9065 2596.24 35.9992 2593.88 33.9101C2591.44 31.748 2588.07 30.3711 2584.47 29.3856C2582.09 28.7335 2579.81 28.2975 2577.68 27.8913C2576.52 27.6714 2575.42 27.4603 2574.37 27.2283C2572.97 26.9196 2571.6 26.556 2570.55 26.0345C2569.56 25.5459 2568.16 24.5527 2568.16 22.7265C2568.16 21.555 2568.58 20.2615 2569.86 19.3731C2570.98 18.5955 2572.5 18.3265 2574.24 18.3265C2579.11 18.3265 2584.76 19.8319 2589.48 22.8649L2595.76 14.5505C2590.33 10.6969 2583.53 8.72648 2575.92 8.72648C2569 8.72648 2563.96 10.764 2560.68 13.6729C2557.4 16.5815 2555.76 20.4558 2555.76 24.4065C2555.76 29.125 2557.4 32.2027 2559.76 34.3618C2562.2 36.5926 2565.55 37.9702 2569.15 38.9231C2571.6 39.5705 2573.96 39.9802 2576.14 40.3602C2577.23 40.5488 2578.27 40.7301 2579.26 40.9295C2580.67 41.2112 2582.05 41.5483 2583.1 42.0543C2584.11 42.5348 2585.52 43.5225 2585.52 45.3665C2585.52 47.5753 2583.91 48.8293 2582.47 49.4316C2581.03 50.0359 2579.25 50.2465 2577.6 50.2465C2570.81 50.2465 2565 47.7415 2560.76 44.3399L2554.68 53.0222C2559.84 57.1426 2566.78 59.8465 2576.8 59.8465C2583.67 59.8465 2588.94 58.2119 2592.44 55.4136ZM2552 53.3665L2560.4 41.3665C2560.88 41.8228 2561.38 42.2678 2561.91 42.6978C2565.84 45.8861 2571.26 48.2465 2577.6 48.2465C2580.64 48.2465 2583.52 47.4465 2583.52 45.3665C2583.52 43.6751 2580.27 43.11 2575.92 42.353C2567.11 40.8186 2553.76 38.4961 2553.76 24.4065C2553.76 15.3665 2561.28 6.72648 2575.92 6.72648C2584.64 6.72648 2592.48 9.20643 2598.56 14.1663C2598.56 14.1664 2598.56 14.1663 2598.56 14.1663L2589.92 25.6063C2589.89 25.5865 2589.87 25.5671 2589.84 25.5474C2585.21 22.0668 2579.25 20.3265 2574.24 20.3265C2571.04 20.3265 2570.16 21.3665 2570.16 22.7265C2570.16 24.4155 2573.49 25.0533 2577.93 25.9015C2586.72 27.5843 2599.84 30.0951 2599.84 43.2865C2599.84 55.0465 2591.12 61.8465 2576.8 61.8465C2565.44 61.8465 2557.68 58.4865 2552 53.3665ZM2289.06 27.2065C2290.74 27.2065 2292.26 25.9265 2292.26 24.0065C2292.26 22.1665 2290.74 20.9665 2289.06 20.9665H2276.58V27.2065H2289.06ZM2289.54 47.4465C2291.86 47.4465 2293.3 46.0865 2293.3 44.0865C2293.3 42.1665 2291.86 40.6465 2289.54 40.6465H2276.58V47.4465H2289.54ZM2369.73 34.2465C2369.73 50.6465 2357.01 61.8465 2340.53 61.8465C2324.05 61.8465 2311.33 50.6465 2311.33 34.2465C2311.33 17.8465 2324.05 6.64648 2340.53 6.64648C2357.01 6.64648 2369.73 17.8465 2369.73 34.2465ZM2327.73 34.2465C2327.73 41.6865 2332.77 47.6065 2340.53 47.6065C2348.29 47.6065 2353.33 41.6865 2353.33 34.2465C2353.33 26.8065 2348.29 20.8865 2340.53 20.8865C2332.77 20.8865 2327.73 26.8065 2327.73 34.2465Z" fill="black"/>
</g>
<defs>
<clipPath id="clip0">
<rect width="2599.84" height="68.493" fill="white"/>
</clipPath>
</defs>
</svg>
