<!-- icon666.com - MILLIONS vector ICONS FREE --><svg clip-rule="evenodd" fill-rule="evenodd" stroke-linejoin="round" stroke-miterlimit="2" viewBox="0 0 512 512" xmlns="http://www.w3.org/2000/svg"><g transform="translate(-1181 -346)"><g transform="translate(-13 -18)"><g transform="matrix(1.125 0 0 1 1210 364)"><path d="m42.667 272h341.333c7.849 0 14.222-7.169 14.222-16s-6.373-16-14.222-16h-341.333c-7.85 0-14.223 7.169-14.223 16s6.373 16 14.223 16z" fill="#000000" style="fill: rgb(230, 10, 10);"></path></g><g transform="matrix(1.066 0 0 1 1232.5 364)"><path d="m288.404 182.338 73.662 73.662s-73.662 73.662-73.662 73.662c-6.041 6.04-6.346 16.174-.682 22.616 5.664 6.441 15.167 6.767 21.208.727l85.333-85.334c3.025-3.024 4.741-7.249 4.741-11.671s-1.716-8.647-4.741-11.671l-85.333-85.334c-6.041-6.04-15.544-5.714-21.208.727-5.664 6.442-5.359 16.576.682 22.616z" fill="#000000" style="fill: rgb(230, 10, 10);"></path></g></g></g></svg>